/* XPM */
static char * wall_v_top_xpm[] = {
"64 64 3 1",
" 	c #8595A1",
".	c #6DC2CA",
"+	c #757161",
"        ....            ................            ............",
"        ....            ................            ............",
"        ....            ................            ............",
"        ....            ................            ............",
"    ++++        ++++                        ++++                ",
"    ++++        ++++                        ++++                ",
"    ++++        ++++                        ++++                ",
"    ++++        ++++                        ++++                ",
"    ++++        ++++                        ++++                ",
"    ++++        ++++                        ++++                ",
"    ++++        ++++                        ++++                ",
"    ++++        ++++                        ++++                ",
"    ++++++++++++++++++++++++++++++++++++++++++++++++++++++++    ",
"    ++++++++++++++++++++++++++++++++++++++++++++++++++++++++    ",
"    ++++++++++++++++++++++++++++++++++++++++++++++++++++++++    ",
"    ++++++++++++++++++++++++++++++++++++++++++++++++++++++++    ",
"++++                    ++++                ++++        ++++++++",
"++++                    ++++                ++++        ++++++++",
"++++                    ++++                ++++        ++++++++",
"++++                    ++++                ++++        ++++++++",
"++++                    ++++                ++++                ",
"++++                    ++++                ++++                ",
"++++                    ++++                ++++                ",
"++++                    ++++                ++++                ",
"++++                    ++++                ++++                ",
"++++                    ++++                ++++                ",
"++++                    ++++                ++++                ",
"++++                    ++++                ++++                ",
"++++++++++++++++++++++++++++                ++++++++++++++++++++",
"++++++++++++++++++++++++++++                ++++++++++++++++++++",
"++++++++++++++++++++++++++++                ++++++++++++++++++++",
"++++++++++++++++++++++++++++                ++++++++++++++++++++",
"            ++++        ++++++++++++++++++++++++                ",
"            ++++        ++++++++++++++++++++++++                ",
"            ++++        ++++++++++++++++++++++++                ",
"            ++++        ++++++++++++++++++++++++                ",
"            ++++                            ++++                ",
"            ++++                            ++++                ",
"            ++++                            ++++                ",
"            ++++                            ++++                ",
"            ++++                            ++++                ",
"            ++++                            ++++                ",
"            ++++                            ++++                ",
"            ++++                            ++++                ",
"            ++++                            ++++                ",
"            ++++                            ++++                ",
"            ++++                            ++++                ",
"            ++++                            ++++                ",
"++++++++++++++++++++++++++++++++++++++++++++++++++++++++++++++++",
"++++++++++++++++++++++++++++++++++++++++++++++++++++++++++++++++",
"++++++++++++++++++++++++++++++++++++++++++++++++++++++++++++++++",
"++++++++++++++++++++++++++++++++++++++++++++++++++++++++++++++++",
"                        ++++                        ++++        ",
"                        ++++                        ++++        ",
"                        ++++                        ++++        ",
"                        ++++                        ++++        ",
"                        ++++                        ++++        ",
"                        ++++                        ++++        ",
"                        ++++                        ++++        ",
"                        ++++                        ++++        ",
"++++++++++++++++++++++++++++                        ++++        ",
"++++++++++++++++++++++++++++                        ++++        ",
"++++++++++++++++++++++++++++                        ++++        ",
"++++++++++++++++++++++++++++                        ++++        "};
