/* XPM */
static char * wall_v_xpm[] = {
"64 64 2 1",
" 	c #8595A1",
".	c #757161",
"                        ....                        ............",
"                        ....                        ............",
"                        ....                        ............",
"                        ....                        ............",
"                        ................................        ",
"                        ................................        ",
"                        ................................        ",
"                        ................................        ",
"                        ....                ....                ",
"                        ....                ....                ",
"                        ....                ....                ",
"                        ....                ....                ",
"............            ....                ....                ",
"............            ....                ....                ",
"............            ....                ....                ",
"............            ....                ....                ",
"        ........................            ....                ",
"        ........................            ....                ",
"        ........................            ....                ",
"        ........................            ....                ",
"                            ....................................",
"                            ....................................",
"                            ....................................",
"                            ....................................",
"                            ....                    ....        ",
"                            ....                    ....        ",
"                            ....                    ....        ",
"                            ....                    ....        ",
"................................                    ....        ",
"................................                    ....        ",
"................................                    ....        ",
"................................                    ....        ",
"            ....            ....    ............................",
"            ....            ....    ............................",
"            ....            ....    ............................",
"            ....            ....    ............................",
"            ....            ............                        ",
"            ....            ............                        ",
"            ....            ............                        ",
"            ....            ............                        ",
"            ....                    ....                        ",
"            ....                    ....                        ",
"            ....                    ....                        ",
"            ....                    ....                        ",
"            ....                    ....            ............",
"            ....                    ....            ............",
"            ....                    ....            ............",
"            ....                    ....            ............",
"........................................................        ",
"........................................................        ",
"........................................................        ",
"........................................................        ",
"                        ....                        ....        ",
"                        ....                        ....        ",
"                        ....                        ....        ",
"                        ....                        ....        ",
"                        ....                        ....        ",
"                        ....                        ....        ",
"                        ....                        ....        ",
"                        ....                        ....        ",
"............................                        ....        ",
"............................                        ....        ",
"............................                        ....        ",
"............................                        ....        "};
