/* XPM */
static char * ghost_right1_xpm[] = {
"64 64 6 1",
" 	c None",
".	c #140C1C",
"+	c #8595A1",
"@	c #DEEED6",
"#	c #30346D",
"$	c #757161",
"                                                                ",
"                                                                ",
"                                                                ",
"                                                                ",
"                        ................                        ",
"                        ................                        ",
"                        ................                        ",
"                        ................                        ",
"                    ....++++@@@@@@@@++++....                    ",
"                    ....++++@@@@@@@@++++....                    ",
"                    ....++++@@@@@@@@++++....                    ",
"                    ....++++@@@@@@@@++++....                    ",
"                ....++++@@@@@@@@@@@@@@@@++++....                ",
"                ....++++@@@@@@@@@@@@@@@@++++....                ",
"                ....++++@@@@@@@@@@@@@@@@++++....                ",
"                ....++++@@@@@@@@@@@@@@@@++++....                ",
"            ....++++@@@@@@@@@@@@@@@@@@@@@@@@++++....            ",
"            ....++++@@@@@@@@@@@@@@@@@@@@@@@@++++....            ",
"            ....++++@@@@@@@@@@@@@@@@@@@@@@@@++++....            ",
"            ....++++@@@@@@@@@@@@@@@@@@@@@@@@++++....            ",
"            ....++++@@@@@@@@@@@@@@@@@@@@@@@@++++....            ",
"            ....++++@@@@@@@@@@@@@@@@@@@@@@@@++++....            ",
"            ....++++@@@@@@@@@@@@@@@@@@@@@@@@++++....            ",
"            ....++++@@@@@@@@@@@@@@@@@@@@@@@@++++....            ",
"            ....++++@@@@@@@@@@@@@@@@########++++....            ",
"            ....++++@@@@@@@@@@@@@@@@########++++....            ",
"            ....++++@@@@@@@@@@@@@@@@########++++....            ",
"            ....++++@@@@@@@@@@@@@@@@########++++....            ",
"            ....++++@@@@@@@@@@@@@@@@########++++....            ",
"            ....++++@@@@@@@@@@@@@@@@########++++....            ",
"            ....++++@@@@@@@@@@@@@@@@########++++....            ",
"            ....++++@@@@@@@@@@@@@@@@########++++....            ",
"            ....++++@@@@@@@@@@@@@@@@@@@@@@@@++++....            ",
"            ....++++@@@@@@@@@@@@@@@@@@@@@@@@++++....            ",
"            ....++++@@@@@@@@@@@@@@@@@@@@@@@@++++....            ",
"            ....++++@@@@@@@@@@@@@@@@@@@@@@@@++++....            ",
"        ....++++++++@@@@@@@@@@@@@@@@@@@@@@@@++++++++....        ",
"        ....++++++++@@@@@@@@@@@@@@@@@@@@@@@@++++++++....        ",
"        ....++++++++@@@@@@@@@@@@@@@@@@@@@@@@++++++++....        ",
"        ....++++++++@@@@@@@@@@@@@@@@@@@@@@@@++++++++....        ",
"        ....@@@@@@@@@@@@@@@@@@@@@@@@@@@@@@@@@@@@@@@@....        ",
"        ....@@@@@@@@@@@@@@@@@@@@@@@@@@@@@@@@@@@@@@@@....        ",
"        ....@@@@@@@@@@@@@@@@@@@@@@@@@@@@@@@@@@@@@@@@....        ",
"        ....@@@@@@@@@@@@@@@@@@@@@@@@@@@@@@@@@@@@@@@@....        ",
"        ....++++@@@@@@@@@@@@@@@@@@@@@@@@@@@@@@@@++++....        ",
"        ....++++@@@@@@@@@@@@@@@@@@@@@@@@@@@@@@@@++++....        ",
"        ....++++@@@@@@@@@@@@@@@@@@@@@@@@@@@@@@@@++++....        ",
"        ....++++@@@@@@@@@@@@@@@@@@@@@@@@@@@@@@@@++++....        ",
"            ............++++@@@@@@@@++++............            ",
"            ............++++@@@@@@@@++++............            ",
"            ............++++@@@@@@@@++++............            ",
"            ............++++@@@@@@@@++++............            ",
"                $$$$$$$$................$$$$$$$$                ",
"                $$$$$$$$................$$$$$$$$                ",
"                $$$$$$$$................$$$$$$$$                ",
"                $$$$$$$$................$$$$$$$$                ",
"        $$$$$$$$$$$$$$$$$$$$$$$$$$$$$$$$$$$$$$$$$$$$$$$$        ",
"        $$$$$$$$$$$$$$$$$$$$$$$$$$$$$$$$$$$$$$$$$$$$$$$$        ",
"        $$$$$$$$$$$$$$$$$$$$$$$$$$$$$$$$$$$$$$$$$$$$$$$$        ",
"        $$$$$$$$$$$$$$$$$$$$$$$$$$$$$$$$$$$$$$$$$$$$$$$$        ",
"                $$$$$$$$$$$$$$$$$$$$$$$$$$$$$$$$                ",
"                $$$$$$$$$$$$$$$$$$$$$$$$$$$$$$$$                ",
"                $$$$$$$$$$$$$$$$$$$$$$$$$$$$$$$$                ",
"                $$$$$$$$$$$$$$$$$$$$$$$$$$$$$$$$                "};
