/* XPM */
static char * exit_final_xpm[] = {
"64 64 6 1",
" 	c None",
".	c #4E4A4E",
"+	c #442434",
"@	c #757161",
"#	c #6DC2CA",
"$	c #8595A1",
"................................................................",
"................................................................",
"................................................................",
"................................................................",
"................................................................",
"++++@@@@@@@@@@@@@@@@@@@@@@@@@@@@@@@@@@@@@@@@@@@@@@@@@@@@@@@@++++",
"++++@@@@@@@@@@@@@@@@@@@@@@@@@@@@@@@@@@@@@@@@@@@@@@@@@@@@@@@@++++",
"++++@@@@@@@@@@@@@@@@@@@@@@@@@@@@@@@@@@@@@@@@@@@@@@@@@@@@@@@@++++",
"++++@@@@@@@@@@@@@@@@@@@@@@@@@@@@@@@@@@@@@@@@@@@@@@@@@@@@@@@@++++",
"++++@@@@++++++++++++++++++++++++++++++++++++++++++++++++@@@@++++",
"++++@@@@++++++++++++++++++++++++++++++++++++++++++++++++@@@@++++",
"++++@@@@++++++++++++++++++++++++++++++++++++++++++++++++@@@@++++",
"++++@@@@++++++++++++++++++++++++++++++++++++++++++++++++@@@@++++",
"++++@@@@++++............++++............++++####$$$$$$$$@@@@++++",
"++++@@@@++++............++++............++++####$$$$$$$$@@@@++++",
"++++@@@@++++............++++............++++####$$$$$$$$@@@@++++",
"++++@@@@++++............++++............++++####$$$$$$$$@@@@++++",
"++++@@@@++++............++++....++++++++++++####$$$$$$$$@@@@++++",
"++++@@@@++++............++++....++++++++++++####$$$$$$$$@@@@++++",
"++++@@@@++++............++++....++++++++++++####$$$$$$$$@@@@++++",
"++++@@@@++++............++++....++++++++++++####$$$$$$$$@@@@++++",
"++++@@@@++++++++++++++++++++++++++++++++++++####$$$$$$$$@@@@++++",
"++++@@@@++++++++++++++++++++++++++++++++++++####$$$$$$$$@@@@++++",
"++++@@@@++++++++++++++++++++++++++++++++++++####$$$$$$$$@@@@++++",
"++++@@@@++++++++++++++++++++++++++++++++++++####$$$$$$$$@@@@++++",
"++++@@@@++++........++++$$$$@@@@@@@@....++++####$$$$$$$$@@@@++++",
"++++@@@@++++........++++$$$$@@@@@@@@....++++####$$$$$$$$@@@@++++",
"++++@@@@++++........++++$$$$@@@@@@@@....++++####$$$$$$$$@@@@++++",
"++++@@@@++++........++++$$$$@@@@@@@@....++++####$$$$$$$$@@@@++++",
"++++@@@@++++++++....++++$$$$@@@@@@@@....++++####$$$$$$$$@@@@++++",
"++++@@@@++++++++....++++$$$$@@@@@@@@....++++####$$$$$$$$@@@@++++",
"++++@@@@++++++++....++++$$$$@@@@@@@@....++++####$$$$$$$$@@@@++++",
"++++@@@@++++++++....++++$$$$@@@@@@@@....++++####$$$$$$$$@@@@++++",
"++++@@@@++++++++++++++++$$$$@@@@@@@@....++++####$$$$$$$$@@@@++++",
"++++@@@@++++++++++++++++$$$$@@@@@@@@....++++####$$$$$$$$@@@@++++",
"++++@@@@++++++++++++++++$$$$@@@@@@@@....++++####$$$$$$$$@@@@++++",
"++++@@@@++++++++++++++++$$$$@@@@@@@@....++++####$$$$$$$$@@@@++++",
"++++@@@@++++........++++$$$$@@@@@@@@....++++####$$$$$$$$@@@@++++",
"++++@@@@++++........++++$$$$@@@@@@@@....++++####$$$$$$$$@@@@++++",
"++++@@@@++++........++++$$$$@@@@@@@@....++++####$$$$$$$$@@@@++++",
"++++@@@@++++........++++$$$$@@@@@@@@....++++####$$$$$$$$@@@@++++",
"++++@@@@++++........++++$$$$@@@@@@@@....++++####$$$$$$$$@@@@++++",
"++++@@@@++++........++++$$$$@@@@@@@@....++++####$$$$$$$$@@@@++++",
"++++@@@@++++........++++$$$$@@@@@@@@....++++####$$$$$$$$@@@@++++",
"++++@@@@++++........++++$$$$@@@@@@@@....++++####$$$$$$$$@@@@++++",
"++++@@@@++++........++++$$$$@@@@@@@@....++++####$$$$$$$$@@@@++++",
"++++@@@@++++........++++$$$$@@@@@@@@....++++####$$$$$$$$@@@@++++",
"++++@@@@++++........++++$$$$@@@@@@@@....++++####$$$$$$$$@@@@++++",
"++++@@@@++++........++++$$$$@@@@@@@@....++++####$$$$$$$$@@@@++++",
"++++@@@@++++........++++$$$$@@@@@@@@....++++####$$$$$$$$@@@@++++",
"++++@@@@++++........++++$$$$@@@@@@@@....++++####$$$$$$$$@@@@++++",
"++++@@@@++++........++++$$$$@@@@@@@@....++++####$$$$$$$$@@@@++++",
"++++@@@@++++........++++$$$$@@@@@@@@....++++####$$$$$$$$@@@@++++",
"++++    ................................................@@@@++++",
"++++    ................................................@@@@++++",
"++++    ................................................@@@@++++",
"++++    ................................................@@@@++++",
"++++@@@@@@@@@@@@@@@@@@@@@@@@@@@@@@@@@@@@@@@@@@@@@@@@@@@@@@@@++++",
"++++@@@@@@@@@@@@@@@@@@@@@@@@@@@@@@@@@@@@@@@@@@@@@@@@@@@@@@@@++++",
"++++@@@@@@@@@@@@@@@@@@@@@@@@@@@@@@@@@@@@@@@@@@@@@@@@@@@@@@@@++++",
"++++@@@@@@@@@@@@@@@@@@@@@@@@@@@@@@@@@@@@@@@@@@@@@@@@@@@@@@@@++++",
"++++++++++++++++++++++++++++++++++++++++++++++++++++++++++++++++",
"++++++++++++++++++++++++++++++++++++++++++++++++++++++++++++++++",
"++++++++++++++++++++++++++++++++++++++++++++++++++++++++++++++++"};
