/* XPM */
static char * exit1_xpm[] = {
"64 64 5 1",
" 	c #4E4A4E",
".	c #442434",
"+	c #757161",
"@	c #346524",
"#	c #8595A1",
"                                                                ",
"                                                                ",
"                                                                ",
"                                                                ",
"                                                                ",
"....+++++++    ++++++++++++++++++++++++++++++++....+++++++++....",
"....+++++++    ++++++++++++++++++++++++++++++++....+++++++++....",
"....+++++++    ++++++++++++++++++++++++++++++++....+++++++++....",
"....+++++++    ++++++++++++++++++++++++++++    ....+++++++++....",
"....+++++++    ++++++++++++++++++++++++++++    .........++++....",
"....+++++++    ++++++++++++++++++++++++++++    .........++++....",
"....+++++++    ++++++++++++++++++++++++++++    .........++++....",
"....@@@        ++++@@@@@@@@@@@@++++            .........++++....",
"....@@@        ++++@@@@@@@@@@@@++++            ....#####++++....",
"....@@@        ++++@@@@@@@@@@@@++++            ....#####++++....",
"....@@@        ++++@@@@@@@@@@@@++++            ....#####++++....",
"....+++++++++++++++++++++++    ++++++++++++++++....#####++++....",
"....+++++++++++++++++++++++    ++++++++++++++++....#####++++....",
"....+++++++++++++++++++++++    ++++++++++++++++....#####++++....",
"....+++++++++++++++++++++++    ++++++++++++++++....#####++++....",
"....+++++++++++++++++++++++    ++++++++++++++++....#####++++....",
"....+++++++++++++++++++++++    ++++++++++++++++....#####++++....",
"....+++++++++++++++++++++++    ++++++++++++++++....#####++++....",
"....+++++++++++++++++++++++    ++++++++++++++++....#####++++....",
"....+++++++++++++++++++++++++++++++++++@@@@++++....#####++++....",
"....+++++++++++++++++++++++++++++++++++@@@@++++....#####++++....",
"....+++++++++++++++++++++++++++++++++++@@@@++++....#####++++....",
"....+++++++++++++++++++++++++++++++++++@@@@++++....#####++++....",
"....               @@@@        ++++@@@@@@@@    ....#####++++....",
"....               @@@@        ++++@@@@@@@@    ....#####++++....",
"....               @@@@        ++++@@@@@@@@    ....#####++++....",
"....               @@@@        ++++@@@@@@@@    ....#####++++....",
"....+++++++    ++++++++++++++++++++++++++++++++....#####++++....",
"....+++++++    ++++++++++++++++++++++++++++++++....#####++++....",
"....+++++++    ++++++++++++++++++++++++++++++++....#####++++....",
"....+++++++    ++++++++++++++++++++++++++++++++....#####++++....",
"....+++++++    ++++++++++++++++++++++++++++    ....#####++++....",
"....+++++++    ++++++++++++++++++++++++++++    ....#####++++....",
"....+++++++    ++++++++++++++++++++++++++++    ....#####++++....",
"....+++++++    ++++++++++++++++++++++++++++    ....#####++++....",
"....+++@@@@@@@@++++++++@@@@++++++++++++++++    ....#####++++....",
"....+++@@@@@@@@++++++++@@@@++++++++++++++++    ....#####++++....",
"....+++@@@@@@@@++++++++@@@@++++++++++++++++    ....#####++++....",
"....+++@@@@@@@@++++++++@@@@++++++++++++++++    ....#####++++....",
"....@@@        @@@@                ++++        ....#####++++....",
"....@@@        @@@@                ++++        ....#####++++....",
"....@@@        @@@@                ++++        ....#####++++....",
"....@@@        @@@@                ++++        ....#####++++....",
"....+++++++++++++++++++++++++++++++++++++++++++....#####++++....",
"....+++++++++++++++++++++++++++++++++++++++++++....#####++++....",
"....+++++++++++++++++++++++++++++++++++++++++++....#####++++....",
"....+++++++++++++++++++++++++++++++++++++++++++....#####++++....",
"....+++++++++++++++++++++++    ++++++++++++++++....#####++++....",
"....+++++++++++++++++++++++    ++++++++++++++++....     ++++....",
"....+++++++++++++++++++++++    ++++++++++++++++....     ++++....",
"....+++++++++++++++++++++++    ++++++++++++++++....     ++++....",
"....@@@@@@@++++++++++++++++    ++++++++++++++++....     ++++....",
"....@@@@@@@++++++++++++++++    ++++++++++++++++....+++++++++....",
"....@@@@@@@++++++++++++++++    ++++++++++++++++....+++++++++....",
"....@@@@@@@++++++++++++++++    ++++++++++++++++....+++++++++....",
"....               @@@@            ++++@@@@@@@@....+++++++++....",
"................................................................",
"................................................................",
"................................................................"};
