/* XPM */
static char * exit0_xpm[] = {
"64 64 4 1",
" 	c #4E4A4E",
".	c #442434",
"+	c #757161",
"@	c #346524",
"                                                                ",
"                                                                ",
"                                                                ",
"                                                                ",
"                                                                ",
"....++++++++++++++++++++    ++++++++++++++++++++++++++++++++....",
"....++++++++++++++++++++    ++++++++++++++++++++++++++++++++....",
"....++++++++++++++++++++    ++++++++++++++++++++++++++++++++....",
"....@@@@++++++++++++++++    ++++++++++++++++++++++++++++    ....",
"....@@@@++++++++++++++++    ++++++++++++++++++++++++++++    ....",
"....@@@@++++++++++++++++    ++++++++++++++++++++++++++++    ....",
"....@@@@++++++++++++++++    ++++++++++++++++++++++++++++    ....",
"....            @@@@        ++++@@@@@@@@@@@@++++            ....",
"....            @@@@        ++++@@@@@@@@@@@@++++            ....",
"....            @@@@        ++++@@@@@@@@@@@@++++            ....",
"....            @@@@        ++++@@@@@@@@@@@@++++            ....",
"....++++    ++++++++++++++++++++++++++++    ++++++++++++++++....",
"....++++    ++++++++++++++++++++++++++++    ++++++++++++++++....",
"....++++    ++++++++++++++++++++++++++++    ++++++++++++++++....",
"....++++    ++++++++++++++++++++++++++++    ++++++++++++++++....",
"....++++    ++++++++++++++++++++++++++++    ++++++++++++++++....",
"....++++    ++++++++++++++++++++++++++++    ++++++++++++++++....",
"....++++    ++++++++++++++++++++++++++++    ++++++++++++++++....",
"....++++    ++++++++++++++++++++++++++++    ++++++++++++++++....",
"....++++    ++++++++++++++++++++++++++++++++++++++++@@@@++++....",
"....++++    ++++++++++++++++++++++++++++++++++++++++@@@@++++....",
"....++++    ++++++++++++++++++++++++++++++++++++++++@@@@++++....",
"....++++    ++++++++++++++++++++++++++++++++++++++++@@@@++++....",
"....        ++++                @@@@        ++++@@@@@@@@    ....",
"....        ++++                @@@@        ++++@@@@@@@@    ....",
"....        ++++                @@@@        ++++@@@@@@@@    ....",
"....        ++++                @@@@        ++++@@@@@@@@    ....",
"....++++++++++++++++++++    ++++++++++++++++++++++++++++++++....",
"....++++++++++++++++++++    ++++++++++++++++++++++++++++++++....",
"....++++++++++++++++++++    ++++++++++++++++++++++++++++++++....",
"....++++++++++++++++++++    ++++++++++++++++++++++++++++++++....",
"....++++++++++++++++++++    ++++++++++++++++++++++++++++    ....",
"....++++++++++++++++++++    ++++++++++++++++++++++++++++    ....",
"....++++++++++++++++++++    ++++++++++++++++++++++++++++    ....",
"....++++++++++++++++++++    ++++++++++++++++++++++++++++    ....",
"....@@@@++++++++++++@@@@@@@@++++++++@@@@++++++++++++++++    ....",
"....@@@@++++++++++++@@@@@@@@++++++++@@@@++++++++++++++++    ....",
"....@@@@++++++++++++@@@@@@@@++++++++@@@@++++++++++++++++    ....",
"....@@@@++++++++++++@@@@@@@@++++++++@@@@++++++++++++++++    ....",
"....@@@@        @@@@        @@@@                ++++        ....",
"....@@@@        @@@@        @@@@                ++++        ....",
"....@@@@        @@@@        @@@@                ++++        ....",
"....@@@@        @@@@        @@@@                ++++        ....",
"....++++    ++++++++++++++++++++++++++++++++++++++++++++++++....",
"....++++    ++++++++++++++++++++++++++++++++++++++++++++++++....",
"....++++    ++++++++++++++++++++++++++++++++++++++++++++++++....",
"....++++    ++++++++++++++++++++++++++++++++++++++++++++++++....",
"....++++    ++++++++++++++++++++++++++++    ++++++++++++++++....",
"....++++    ++++++++++++++++++++++++++++    ++++++++++++++++....",
"....++++    ++++++++++++++++++++++++++++    ++++++++++++++++....",
"....++++    ++++++++++++++++++++++++++++    ++++++++++++++++....",
"....++++@@@@++++@@@@@@@@++++++++++++++++    ++++++++++++++++....",
"....++++@@@@++++@@@@@@@@++++++++++++++++    ++++++++++++++++....",
"....++++@@@@++++@@@@@@@@++++++++++++++++    ++++++++++++++++....",
"....++++@@@@++++@@@@@@@@++++++++++++++++    ++++++++++++++++....",
"....        ++++                @@@@            ++++@@@@@@@@....",
"................................................................",
"................................................................",
"................................................................"};
