/* XPM */
static char * player_down1_xpm[] = {
"64 64 12 1",
" 	c None",
".	c #140C1C",
"+	c #854C30",
"@	c #D27D2C",
"#	c #DAD45E",
"$	c #442434",
"%	c #DEEED6",
"&	c #D2AA99",
"*	c #30346D",
"=	c #597DCE",
"-	c #6DC2CA",
";	c #757161",
"                    ........................                    ",
"                    ........................                    ",
"                    ........................                    ",
"                    ........................                    ",
"                ....++++@@@@@@@@@@@@@@@@++++....                ",
"                ....++++@@@@@@@@@@@@@@@@++++....                ",
"                ....++++@@@@@@@@@@@@@@@@++++....                ",
"                ....++++@@@@@@@@@@@@@@@@++++....                ",
"            ....++++@@@@@@@@@@@@####$$$$++++++++....            ",
"            ....++++@@@@@@@@@@@@####$$$$++++++++....            ",
"            ....++++@@@@@@@@@@@@####$$$$++++++++....            ",
"            ....++++@@@@@@@@@@@@####$$$$++++++++....            ",
"            ....####@@@@########$$$$$$$$@@@@++++....            ",
"            ....####@@@@########$$$$$$$$@@@@++++....            ",
"            ....####@@@@########$$$$$$$$@@@@++++....            ",
"            ....####@@@@########$$$$$$$$@@@@++++....            ",
"        ....@@@@++++@@@@$$$$$$$$$$$$@@@@$$$$++++$$$$....        ",
"        ....@@@@++++@@@@$$$$$$$$$$$$@@@@$$$$++++$$$$....        ",
"        ....@@@@++++@@@@$$$$$$$$$$$$@@@@$$$$++++$$$$....        ",
"        ....@@@@++++@@@@$$$$$$$$$$$$@@@@$$$$++++$$$$....        ",
"        ....++++@@@@$$$$....########....@@@@$$$$++++....        ",
"        ....++++@@@@$$$$....########....@@@@$$$$++++....        ",
"        ....++++@@@@$$$$....########....@@@@$$$$++++....        ",
"        ....++++@@@@$$$$....########....@@@@$$$$++++....        ",
"        ....++++$$$$####....%%%%%%%%....####$$$$++++....        ",
"        ....++++$$$$####....%%%%%%%%....####$$$$++++....        ",
"        ....++++$$$$####....%%%%%%%%....####$$$$++++....        ",
"        ....++++$$$$####....%%%%%%%%....####$$$$++++....        ",
"        ....++++....++++&&&&&&&&&&&&&&&&++++$$$$++++....        ",
"        ....++++....++++&&&&&&&&&&&&&&&&++++$$$$++++....        ",
"        ....++++....++++&&&&&&&&&&&&&&&&++++$$$$++++....        ",
"        ....++++....++++&&&&&&&&&&&&&&&&++++$$$$++++....        ",
"        ........********++++@@@@@@@@++++====****....            ",
"        ........********++++@@@@@@@@++++====****....            ",
"        ........********++++@@@@@@@@++++====****....            ",
"        ........********++++@@@@@@@@++++====****....            ",
"        ........&&&&****%%%%********%%%%----####....            ",
"        ........&&&&****%%%%********%%%%----####....            ",
"        ........&&&&****%%%%********%%%%----####....            ",
"        ........&&&&****%%%%********%%%%----####....            ",
"        ....$$$$........====%%%%%%%%****....&&&&....            ",
"        ....$$$$........====%%%%%%%%****....&&&&....            ",
"        ....$$$$........====%%%%%%%%****....&&&&....            ",
"        ....$$$$........====%%%%%%%%****....&&&&....            ",
"            ....============%%%%%%%%****........                ",
"            ....============%%%%%%%%****........                ",
"            ....============%%%%%%%%****........                ",
"            ....============%%%%%%%%****........                ",
"            ....========--------========****....                ",
"            ....========--------========****....                ",
"            ....========--------========****....                ",
"            ....========--------========****....                ",
"            ;;;;....----------------........;;;;;;;;            ",
"            ;;;;....----------------........;;;;;;;;            ",
"            ;;;;....----------------........;;;;;;;;            ",
"            ;;;;....----------------........;;;;;;;;            ",
"            ;;;;;;;;....++++++++....;;;;;;;;;;;;;;;;            ",
"            ;;;;;;;;....++++++++....;;;;;;;;;;;;;;;;            ",
"            ;;;;;;;;....++++++++....;;;;;;;;;;;;;;;;            ",
"            ;;;;;;;;....++++++++....;;;;;;;;;;;;;;;;            ",
"                ;;;;;;;;........;;;;;;;;;;;;;;;;                ",
"                ;;;;;;;;........;;;;;;;;;;;;;;;;                ",
"                ;;;;;;;;........;;;;;;;;;;;;;;;;                ",
"                ;;;;;;;;........;;;;;;;;;;;;;;;;                "};
