/* XPM */
static char * player_right0_xpm[] = {
"64 64 12 1",
" 	c None",
".	c #140C1C",
"+	c #442434",
"@	c #D27D2C",
"#	c #854C30",
"$	c #DAD45E",
"%	c #D2AA99",
"&	c #DEEED6",
"*	c #30346D",
"=	c #597DCE",
"-	c #757161",
";	c #6DC2CA",
"                    ........................                    ",
"                    ........................                    ",
"                    ........................                    ",
"                    ........................                    ",
"                ....++++@@@@@@@@@@@@@@@@####....                ",
"                ....++++@@@@@@@@@@@@@@@@####....                ",
"                ....++++@@@@@@@@@@@@@@@@####....                ",
"                ....++++@@@@@@@@@@@@@@@@####....                ",
"            ....++++########@@@@@@@@@@@@$$$$####....            ",
"            ....++++########@@@@@@@@@@@@$$$$####....            ",
"            ....++++########@@@@@@@@@@@@$$$$####....            ",
"            ....++++########@@@@@@@@@@@@$$$$####....            ",
"            ....++++####@@@@$$$$$$$$$$$$@@@@++++....            ",
"            ....++++####@@@@$$$$$$$$$$$$@@@@++++....            ",
"            ....++++####@@@@$$$$$$$$$$$$@@@@++++....            ",
"            ....++++####@@@@$$$$$$$$$$$$@@@@++++....            ",
"            ....########$$$$@@@@++++++++++++....                ",
"            ....########$$$$@@@@++++++++++++....                ",
"            ....########$$$$@@@@++++++++++++....                ",
"            ....########$$$$@@@@++++++++++++....                ",
"            ....####@@@@@@@@++++%%%%....$$$$....                ",
"            ....####@@@@@@@@++++%%%%....$$$$....                ",
"            ....####@@@@@@@@++++%%%%....$$$$....                ",
"            ....####@@@@@@@@++++%%%%....$$$$....                ",
"            ....####@@@@####++++$$$$....&&&&....                ",
"            ....####@@@@####++++$$$$....&&&&....                ",
"            ....####@@@@####++++$$$$....&&&&....                ",
"            ....####@@@@####++++$$$$....&&&&....                ",
"        ....++++########++++@@@@%%%%%%%%####....                ",
"        ....++++########++++@@@@%%%%%%%%####....                ",
"        ....++++########++++@@@@%%%%%%%%####....                ",
"        ....++++########++++@@@@%%%%%%%%####....                ",
"        ....########++++....****@@@@........                    ",
"        ....########++++....****@@@@........                    ",
"        ....########++++....****@@@@........                    ",
"        ....########++++....****@@@@........                    ",
"        ....++++####........========....                        ",
"        ....++++####........========....                        ",
"        ....++++####........========....                        ",
"        ....++++####........========....                        ",
"            ....++++........&&&&====....                        ",
"            ....++++........&&&&====....                        ",
"            ....++++........&&&&====....                        ",
"            ....++++........&&&&====....                        ",
"                ............@@@@$$$$........                    ",
"                ............@@@@$$$$........                    ",
"                ............@@@@$$$$........                    ",
"                ............@@@@$$$$........                    ",
"                ....****====............****....                ",
"                ....****====............****....                ",
"                ....****====............****....                ",
"                ....****====............****....                ",
"            ----....============;;;;========....----            ",
"            ----....============;;;;========....----            ",
"            ----....============;;;;========....----            ",
"            ----....============;;;;========....----            ",
"            ----........====;;;;;;;;====........----            ",
"            ----........====;;;;;;;;====........----            ",
"            ----........====;;;;;;;;====........----            ",
"            ----........====;;;;;;;;====........----            ",
"                --------................--------                ",
"                --------................--------                ",
"                --------................--------                ",
"                --------................--------                "};
