/* XPM */
static char * player_up1_xpm[] = {
"64 64 11 1",
" 	c None",
".	c #140C1C",
"+	c #854C30",
"@	c #D27D2C",
"#	c #DAD45E",
"$	c #442434",
"%	c #D2AA99",
"&	c #597DCE",
"*	c #30346D",
"=	c #6DC2CA",
"-	c #757161",
"                    ........................                    ",
"                    ........................                    ",
"                    ........................                    ",
"                    ........................                    ",
"                ....++++++++@@@@@@@@@@@@++++....                ",
"                ....++++++++@@@@@@@@@@@@++++....                ",
"                ....++++++++@@@@@@@@@@@@++++....                ",
"                ....++++++++@@@@@@@@@@@@++++....                ",
"            ....++++@@@@@@@@++++@@@@@@@@@@@@++++....            ",
"            ....++++@@@@@@@@++++@@@@@@@@@@@@++++....            ",
"            ....++++@@@@@@@@++++@@@@@@@@@@@@++++....            ",
"            ....++++@@@@@@@@++++@@@@@@@@@@@@++++....            ",
"            ....++++####@@@@@@@@@@@@@@@@####++++....            ",
"            ....++++####@@@@@@@@@@@@@@@@####++++....            ",
"            ....++++####@@@@@@@@@@@@@@@@####++++....            ",
"            ....++++####@@@@@@@@@@@@@@@@####++++....            ",
"        ....++++++++@@@@################@@@@$$$$++++....        ",
"        ....++++++++@@@@################@@@@$$$$++++....        ",
"        ....++++++++@@@@################@@@@$$$$++++....        ",
"        ....++++++++@@@@################@@@@$$$$++++....        ",
"        ....++++$$$$@@@@++++@@@@@@@@@@@@@@@@$$$$++++....        ",
"        ....++++$$$$@@@@++++@@@@@@@@@@@@@@@@$$$$++++....        ",
"        ....++++$$$$@@@@++++@@@@@@@@@@@@@@@@$$$$++++....        ",
"        ....++++$$$$@@@@++++@@@@@@@@@@@@@@@@$$$$++++....        ",
"        ....++++$$$$++++@@@@++++@@@@++++@@@@++++$$$$....        ",
"        ....++++$$$$++++@@@@++++@@@@++++@@@@++++$$$$....        ",
"        ....++++$$$$++++@@@@++++@@@@++++@@@@++++$$$$....        ",
"        ....++++$$$$++++@@@@++++@@@@++++@@@@++++$$$$....        ",
"        ....$$$$$$$$++++@@@@++++@@@@++++++++++++$$$$....        ",
"        ....$$$$$$$$++++@@@@++++@@@@++++++++++++$$$$....        ",
"        ....$$$$$$$$++++@@@@++++@@@@++++++++++++$$$$....        ",
"        ....$$$$$$$$++++@@@@++++@@@@++++++++++++$$$$....        ",
"        ....$$$$$$$$$$$$++++++++@@@@$$$$++++++++$$$$....        ",
"        ....$$$$$$$$$$$$++++++++@@@@$$$$++++++++$$$$....        ",
"        ....$$$$$$$$$$$$++++++++@@@@$$$$++++++++$$$$....        ",
"        ....$$$$$$$$$$$$++++++++@@@@$$$$++++++++$$$$....        ",
"            ....$$$$$$$$++++++++++++$$$$++++....$$$$....        ",
"            ....$$$$$$$$++++++++++++$$$$++++....$$$$....        ",
"            ....$$$$$$$$++++++++++++$$$$++++....$$$$....        ",
"            ....$$$$$$$$++++++++++++$$$$++++....$$$$....        ",
"                ........$$$$++++$$$$$$$$....%%%%....            ",
"                ........$$$$++++$$$$$$$$....%%%%....            ",
"                ........$$$$++++$$$$$$$$....%%%%....            ",
"                ........$$$$++++$$$$$$$$....%%%%....            ",
"                ....&&&&................****....                ",
"                ....&&&&................****....                ",
"                ....&&&&................****....                ",
"                ....&&&&................****....                ",
"            ....****&&&&========&&&&&&&&********....            ",
"            ....****&&&&========&&&&&&&&********....            ",
"            ....****&&&&========&&&&&&&&********....            ",
"            ....****&&&&========&&&&&&&&********....            ",
"            ----....============&&&&&&&&&&&&....----            ",
"            ----....============&&&&&&&&&&&&....----            ",
"            ----....============&&&&&&&&&&&&....----            ",
"            ----....============&&&&&&&&&&&&....----            ",
"            --------....++++++++............--------            ",
"            --------....++++++++............--------            ",
"            --------....++++++++............--------            ",
"            --------....++++++++............--------            ",
"                --------........----------------                ",
"                --------........----------------                ",
"                --------........----------------                ",
"                --------........----------------                "};
