/* XPM */
static char * chest1_xpm[] = {
"64 64 7 1",
" 	c #757161",
".	c #4E4A4E",
"+	c #346524",
"@	c #442434",
"#	c #D27D2C",
"$	c #854C30",
"%	c #DAD45E",
"                                                        ....    ",
"                                                        ....    ",
"                                                        ....    ",
"                                                        ....    ",
"                        ....                                    ",
"                        ....                                    ",
"                        ....                                    ",
"                        ....                                    ",
"    ++++                ....                            ....    ",
"    ++++                ....                            ....    ",
"    ++++                ....                            ....    ",
"    ++++                ....                            ....    ",
"................++++........    ++++++++++++    ............    ",
"................++++........    ++++++++++++    ............    ",
"................++++........    ++++++++++++    ............    ",
"................++++........    ++++++++++++    ............    ",
"        ....@@@@@@@@@@@@@@@@@@@@@@@@@@@@@@@@@@@@@@@@            ",
"        ....@@@@@@@@@@@@@@@@@@@@@@@@@@@@@@@@@@@@@@@@            ",
"        ....@@@@@@@@@@@@@@@@@@@@@@@@@@@@@@@@@@@@@@@@            ",
"        ....@@@@@@@@@@@@@@@@@@@@@@@@@@@@@@@@@@@@@@@@            ",
"        @@@@########$$$$$$$$$$$$$$$$$$$$$$$$$$$$####@@@@        ",
"        @@@@########$$$$$$$$$$$$$$$$$$$$$$$$$$$$####@@@@        ",
"        @@@@########$$$$$$$$$$$$$$$$$$$$$$$$$$$$####@@@@        ",
"        @@@@########$$$$$$$$$$$$$$$$$$$$$$$$$$$$####@@@@        ",
"    @@@@####$$$$$$$$$$$$$$$$$$$$$$$$$$$$$$$$$$$$$$$$####@@@@    ",
"    @@@@####$$$$$$$$$$$$$$$$$$$$$$$$$$$$$$$$$$$$$$$$####@@@@    ",
"    @@@@####$$$$$$$$$$$$$$$$$$$$$$$$$$$$$$$$$$$$$$$$####@@@@    ",
"    @@@@####$$$$$$$$$$$$$$$$$$$$$$$$$$$$$$$$$$$$$$$$####@@@@    ",
"    @@@@####$$$$$$$$########################$$$$$$$$####@@@@....",
"    @@@@####$$$$$$$$########################$$$$$$$$####@@@@....",
"    @@@@####$$$$$$$$########################$$$$$$$$####@@@@....",
"    @@@@####$$$$$$$$########################$$$$$$$$####@@@@....",
"    @@@@################################################@@@@    ",
"    @@@@################################################@@@@    ",
"    @@@@################################################@@@@    ",
"    @@@@################################################@@@@    ",
"    @@@@####$$$$################################$$$$####@@@@    ",
"    @@@@####$$$$################################$$$$####@@@@    ",
"    @@@@####$$$$################################$$$$####@@@@    ",
"    @@@@####$$$$################################$$$$####@@@@    ",
"    @@@@####%%%%%%%%%%%%%%%%%%%%%%%%%%%%%%%%%%%%%%%%####@@@@    ",
"    @@@@####%%%%%%%%%%%%%%%%%%%%%%%%%%%%%%%%%%%%%%%%####@@@@    ",
"    @@@@####%%%%%%%%%%%%%%%%%%%%%%%%%%%%%%%%%%%%%%%%####@@@@    ",
"    @@@@####%%%%%%%%%%%%%%%%%%%%%%%%%%%%%%%%%%%%%%%%####@@@@    ",
"....@@@@@@@@@@@@@@@@@@@@@@@@$$$$$$$$@@@@@@@@@@@@@@@@@@@@@@@@....",
"....@@@@@@@@@@@@@@@@@@@@@@@@$$$$$$$$@@@@@@@@@@@@@@@@@@@@@@@@....",
"....@@@@@@@@@@@@@@@@@@@@@@@@$$$$$$$$@@@@@@@@@@@@@@@@@@@@@@@@....",
"....@@@@@@@@@@@@@@@@@@@@@@@@$$$$$$$$@@@@@@@@@@@@@@@@@@@@@@@@....",
"    @@@@$$$$$$$$$$$$$$$$@@@@%%%%%%%%@@@@$$$$$$$$$$$$$$$$@@@@    ",
"    @@@@$$$$$$$$$$$$$$$$@@@@%%%%%%%%@@@@$$$$$$$$$$$$$$$$@@@@    ",
"    @@@@$$$$$$$$$$$$$$$$@@@@%%%%%%%%@@@@$$$$$$$$$$$$$$$$@@@@    ",
"    @@@@$$$$$$$$$$$$$$$$@@@@%%%%%%%%@@@@$$$$$$$$$$$$$$$$@@@@    ",
"    @@@@$$$$################@@@@@@@@################$$$$@@@@    ",
"    @@@@$$$$################@@@@@@@@################$$$$@@@@    ",
"    @@@@$$$$################@@@@@@@@################$$$$@@@@    ",
"    @@@@$$$$################@@@@@@@@################$$$$@@@@    ",
"    @@@@################################################@@@@++++",
"    @@@@################################################@@@@++++",
"    @@@@################################################@@@@++++",
"    @@@@################################################@@@@++++",
"    ....@@@@@@@@@@@@@@@@@@@@@@@@@@@@@@@@@@@@@@@@@@@@@@@@++++++++",
"    ....@@@@@@@@@@@@@@@@@@@@@@@@@@@@@@@@@@@@@@@@@@@@@@@@++++++++",
"    ....@@@@@@@@@@@@@@@@@@@@@@@@@@@@@@@@@@@@@@@@@@@@@@@@++++++++",
"    ....@@@@@@@@@@@@@@@@@@@@@@@@@@@@@@@@@@@@@@@@@@@@@@@@++++++++"};
