/* XPM */
static char * counter0_xpm[] = {
"64 64 275 2",
"  	c #1F1F1F",
". 	c #21201F",
"+ 	c #22201F",
"@ 	c #22211F",
"# 	c #24221F",
"$ 	c #24211F",
"% 	c #242120",
"& 	c #23211F",
"* 	c #262320",
"= 	c #272320",
"- 	c #29251F",
"; 	c #2B2620",
"> 	c #2A2520",
", 	c #292520",
"' 	c #292420",
") 	c #282420",
"! 	c #26231F",
"~ 	c #222120",
"{ 	c #2A2620",
"] 	c #2C2620",
"^ 	c #2E2720",
"/ 	c #302821",
"( 	c #312920",
"_ 	c #322920",
": 	c #312821",
"< 	c #322820",
"[ 	c #302820",
"} 	c #2F2720",
"| 	c #27241F",
"1 	c #20201F",
"2 	c #2F2721",
"3 	c #342921",
"4 	c #352A21",
"5 	c #372B21",
"6 	c #382C20",
"7 	c #382C21",
"8 	c #382D21",
"9 	c #372B20",
"0 	c #352A20",
"a 	c #342A20",
"b 	c #2E2721",
"c 	c #2B2520",
"d 	c #352B21",
"e 	c #362B20",
"f 	c #3A2D21",
"g 	c #3C2E21",
"h 	c #3D2F22",
"i 	c #3F2F21",
"j 	c #3F3022",
"k 	c #413121",
"l 	c #413021",
"m 	c #3F3021",
"n 	c #3D2F21",
"o 	c #3B2E21",
"p 	c #362B21",
"q 	c #332A20",
"r 	c #2C261F",
"s 	c #25231F",
"t 	c #202020",
"u 	c #433222",
"v 	c #443322",
"w 	c #463422",
"x 	c #483422",
"y 	c #473421",
"z 	c #463322",
"A 	c #453221",
"B 	c #423222",
"C 	c #332921",
"D 	c #262220",
"E 	c #201F1F",
"F 	c #453222",
"G 	c #493522",
"H 	c #4A3622",
"I 	c #4C3723",
"J 	c #4E3822",
"K 	c #4F3822",
"L 	c #4E3823",
"M 	c #4C3722",
"N 	c #4D3723",
"O 	c #4B3622",
"P 	c #473422",
"Q 	c #503923",
"R 	c #523A23",
"S 	c #543A23",
"T 	c #553B23",
"U 	c #513A23",
"V 	c #503823",
"W 	c #423122",
"X 	c #3A2D20",
"Y 	c #533A23",
"Z 	c #563C23",
"` 	c #593D23",
" .	c #5A3D24",
"..	c #5C3F23",
"+.	c #5B3F23",
"@.	c #5C3E24",
"#.	c #5A3E23",
"$.	c #583D23",
"%.	c #543B23",
"&.	c #4D3722",
"*.	c #483421",
"=.	c #342B21",
"-.	c #523922",
";.	c #573C23",
">.	c #5A3E24",
",.	c #5E4024",
"'.	c #5F4124",
").	c #614224",
"!.	c #624224",
"~.	c #604124",
"{.	c #523A22",
"].	c #443321",
"^.	c #342920",
"/.	c #2A241F",
"(.	c #634324",
"_.	c #664424",
":.	c #684524",
"<.	c #694624",
"[.	c #664524",
"}.	c #5B3E23",
"|.	c #423121",
"1.	c #2D2620",
"2.	c #5E3F23",
"3.	c #624324",
"4.	c #664425",
"5.	c #6D4825",
"6.	c #6E4925",
"7.	c #704925",
"8.	c #714A25",
"9.	c #6F4A25",
"0.	c #6E4825",
"a.	c #6C4725",
"b.	c #604123",
"c.	c #523923",
"d.	c #4C3622",
"e.	c #372C20",
"f.	c #674524",
"g.	c #6B4725",
"h.	c #734B25",
"i.	c #754C26",
"j.	c #774D26",
"k.	c #784E25",
"l.	c #784E26",
"m.	c #754C25",
"n.	c #724A25",
"o.	c #614124",
"p.	c #2D2720",
"q.	c #25221F",
"r.	c #6D4824",
"s.	c #7B5026",
"t.	c #7D5026",
"u.	c #7F5226",
"v.	c #7F5126",
"w.	c #7C4F25",
"x.	c #704A25",
"y.	c #6B4624",
"z.	c #654424",
"A.	c #553C22",
"B.	c #493622",
"C.	c #3C2E22",
"D.	c #352B20",
"E.	c #2F2820",
"F.	c #29241F",
"G.	c #6A4725",
"H.	c #764D26",
"I.	c #7A4F26",
"J.	c #7F5225",
"K.	c #825326",
"L.	c #845426",
"M.	c #D27D2C",
"N.	c #865527",
"O.	c #825426",
"P.	c #7E5026",
"Q.	c #644324",
"R.	c #5F4024",
"S.	c #4B3623",
"T.	c #382D20",
"U.	c #2B251F",
"V.	c #1E1E1E",
"W.	c #7A4F25",
"X.	c #895727",
"Y.	c #8B5827",
"Z.	c #8B5826",
"`.	c #875627",
" +	c #794F25",
".+	c #684525",
"++	c #614123",
"@+	c #4E3722",
"#+	c #483522",
"$+	c #794E26",
"%+	c #8F5A27",
"&+	c #DAD45E",
"*+	c #915C27",
"=+	c #8F5927",
"-+	c #895726",
";+	c #845526",
">+	c #7D5125",
",+	c #774D25",
"'+	c #6B4625",
")+	c #5D3F24",
"!+	c #7C5026",
"~+	c #885627",
"{+	c #8E5927",
"]+	c #DEEED6",
"^+	c #975E28",
"/+	c #8D5827",
"(+	c #875626",
"_+	c #815226",
":+	c #7A4E25",
"<+	c #5F4123",
"[+	c #513A22",
"}+	c #3E2F21",
"|+	c #764D25",
"1+	c #8B5727",
"2+	c #925B27",
"3+	c #905B27",
"4+	c #895627",
"5+	c #825327",
"6+	c #7B4F25",
"7+	c #6E4824",
"8+	c #604224",
"9+	c #593E23",
"0+	c #7E5025",
"a+	c #855526",
"b+	c #442434",
"c+	c #533A22",
"d+	c #4C3623",
"e+	c #302720",
"f+	c #2A2420",
"g+	c #845427",
"h+	c #854C30",
"i+	c #7D5126",
"j+	c #6E4924",
"k+	c #140C1C",
"l+	c #362C21",
"m+	c #855426",
"n+	c #835327",
"o+	c #7C4F26",
"p+	c #6F4925",
"q+	c #614223",
"r+	c #443222",
"s+	c #3D2E21",
"t+	c #232120",
"u+	c #815227",
"v+	c #7A4E26",
"w+	c #6C4824",
"x+	c #757161",
"y+	c #835326",
"z+	c #835426",
"A+	c #7B4F26",
"B+	c #694625",
"C+	c #744B25",
"D+	c #835427",
"E+	c #734C25",
"F+	c #6C4825",
"G+	c #D04648",
"H+	c #794D26",
"I+	c #815326",
"J+	c #4E4A4E",
"K+	c #7C5025",
"L+	c #634224",
"M+	c #5E4023",
"N+	c #6B4724",
"O+	c #734B26",
"P+	c #5F4023",
"Q+	c #604223",
"R+	c #644424",
"S+	c #453322",
"T+	c #5D4024",
"U+	c #654324",
"V+	c #5D4023",
"W+	c #513922",
"X+	c #433221",
"Y+	c #372C21",
"Z+	c #322921",
"                                                                                                                                ",
"                                                                                                                                ",
"                                                                                                                                ",
"                                                                                                                                ",
"            . . + + @ @ # # $ $ % % # # & & & & . .                                                                             ",
"            . . + + @ @ # # $ $ % % # # & & & & . .                                                                             ",
". . # # * * = = - - ; ; > > ; ; > > ; ; , , ' ' ) ) ! ! ~ ~ . .                                                                 ",
". . # # * * = = - - ; ; > > ; ; > > ; ; , , ' ' ) ) ! ! ~ ~ . .                                                                 ",
"= = { { ] ] ^ ^ / / ( ( ( ( ( ( _ _ : : < < [ [ } } ] ] ' ' | | % % 1 1                                                         ",
"= = { { ] ] ^ ^ / / ( ( ( ( ( ( _ _ : : < < [ [ } } ] ] ' ' | | % % 1 1                                                         ",
"^ ^ 2 2 3 3 4 4 5 5 6 6 7 7 7 7 7 7 8 8 8 8 9 9 0 0 a a / / b b c c = = # #                                                     ",
"^ ^ 2 2 3 3 4 4 5 5 6 6 7 7 7 7 7 7 8 8 8 8 9 9 0 0 a a / / b b c c = = # #                                                     ",
"d d e e f f g g h h i i j j k k l l m m j j n n o o f f p p q q / / r r , , s s t t                                             ",
"d d e e f f g g h h i i j j k k l l m m j j n n o o f f p p q q / / r r , , s s t t                                             ",
"f f h h k k u u v v w w w w x x y y z z z z A A B B m m n n f f p p C C ^ ^ c c D D E E                                         ",
"f f h h k k u u v v w w w w x x y y z z z z A A B B m m n n f f p p C C ^ ^ c c D D E E                                         ",
"k k F F x x G G H H I I J J K K L L M M N N O O G G z z v v l l o o 7 7 d d / / c c ! ! . .                                     ",
"k k F F x x G G H H I I J J K K L L M M N N O O G G z z v v l l o o 7 7 d d / / c c ! ! . .                                     ",
"P P O O M M Q Q R R S S T T T T T T T T S S U U V V M M G G z z W W n n X X 0 0 [ [ c c ! ! 1 1                                 ",
"P P O O M M Q Q R R S S T T T T T T T T S S U U V V M M G G z z W W n n X X 0 0 [ [ c c ! ! 1 1                                 ",
"M M Q Q Y Y Z Z ` `  . .........+.+.@.@.#.#.$.$.%.%.%.%.K K &.&.*.*.v v j j f f =.=.[ [ > > # #                                 ",
"M M Q Q Y Y Z Z ` `  . .........+.+.@.@.#.#.$.$.%.%.%.%.K K &.&.*.*.v v j j f f =.=.[ [ > > # #                                 ",
"-.-.;.;.>.>.,.,.'.'.).).!.!.!.!.!.!.!.!.~.~.'.'.....$.$.T T {.{.M M G G ].].i i f f ^.^.^ ^ /./.+ +                             ",
"-.-.;.;.>.>.,.,.'.'.).).!.!.!.!.!.!.!.!.~.~.'.'.....$.$.T T {.{.M M G G ].].i i f f ^.^.^ ^ /./.+ +                             ",
"` ` +.+.'.'.(.(._._.:.:.<.<.<.<.<.<.<.<.:.:.[.[.(.(.'.'.}.}.Z Z Y Y J J G G |.|.n n 7 7 : : 1.1.D D . .                         ",
"` ` +.+.'.'.(.(._._.:.:.<.<.<.<.<.<.<.<.:.:.[.[.(.(.'.'.}.}.Z Z Y Y J J G G |.|.n n 7 7 : : 1.1.D D . .                         ",
"2.2.3.3.4.4.<.<.5.5.6.6.7.7.8.8.7.7.9.9.0.0.a.a.<.<._._.b.b.....$.$.c.c.d.d.P P B B g g e.e./ / , , # #                         ",
"2.2.3.3.4.4.<.<.5.5.6.6.7.7.8.8.7.7.9.9.0.0.a.a.<.<._._.b.b.....$.$.c.c.d.d.P P B B g g e.e./ / , , # #                         ",
"3.3.f.f.g.g.7.7.h.h.i.i.j.j.k.k.l.l.j.j.m.m.n.n.6.6.g.g._._.o.o.....;.;.c.c.H H z z j j 7 7 C C p.p.q.q.                        ",
"3.3.f.f.g.g.7.7.h.h.i.i.j.j.k.k.l.l.j.j.m.m.n.n.6.6.g.g._._.o.o.....;.;.c.c.H H z z j j 7 7 C C p.p.q.q.                        ",
"f.f.r.r.n.n.m.m.k.k.s.s.t.t.u.u.v.v.t.t.w.w.l.l.m.m.x.x.y.y.z.z.b.b.>.>.A.A.J J B.B.u u C.C.D.D.E.E.F.F.& &                     ",
"f.f.r.r.n.n.m.m.k.k.s.s.t.t.u.u.v.v.t.t.w.w.l.l.m.m.x.x.y.y.z.z.b.b.>.>.A.A.J J B.B.u u C.C.D.D.E.E.F.F.& &                     ",
"G.G.n.n.H.H.I.I.J.J.K.K.L.L.M.M.N.N.L.L.O.O.P.P.I.I.m.m.x.x.g.g.Q.Q.R.R.$.$.{.{.S.S.z z m m T.T.( ( U.U.# #     V.V.            ",
"G.G.n.n.H.H.I.I.J.J.K.K.L.L.M.M.N.N.L.L.O.O.P.P.I.I.m.m.x.x.g.g.Q.Q.R.R.$.$.{.{.S.S.z z m m T.T.( ( U.U.# #     V.V.            ",
"x.x.m.m.W.W.v.v.L.L.X.X.Y.Y.M.M.M.M.Z.Z.`.`.L.L.v.v. + +h.h.6.6..+.+++++....T T @+@+#+#+k k f f a a p.p.q.q.                    ",
"x.x.m.m.W.W.v.v.L.L.X.X.Y.Y.M.M.M.M.Z.Z.`.`.L.L.v.v. + +h.h.6.6..+.+++++....T T @+@+#+#+k k f f a a p.p.q.q.                    ",
"n.n.$+$+v.v.L.L.X.X.%+%+M.M.&+&+M.M.*+*+=+=+-+-+;+;+>+>+,+,+n.n.'+'+Q.Q.)+)+Z Z Q Q G G |.|.g g 4 4 ^ ^ | | . .                 ",
"n.n.$+$+v.v.L.L.X.X.%+%+M.M.&+&+M.M.*+*+=+=+-+-+;+;+>+>+,+,+n.n.'+'+Q.Q.)+)+Z Z Q Q G G |.|.g g 4 4 ^ ^ | | . .                 ",
"i.i.!+!+O.O.~+~+{+{+M.M.&+&+]+]+M.M.^+^+M.M./+/+(+(+_+_+:+:+h.h.r.r._._.<+<+$.$.[+[+H H v v }+}+p p [ [ - - 1 1                 ",
"i.i.!+!+O.O.~+~+{+{+M.M.&+&+]+]+M.M.^+^+M.M./+/+(+(+_+_+:+:+h.h.r.r._._.<+<+$.$.[+[+H H v v }+}+p p [ [ - - 1 1                 ",
"|+|+t.t.L.L.1+1+2+2+&+&+&+&+]+]+&+&+M.M.M.M.3+3+4+4+5+5+6+6+m.m.7+7+f.f.8+8+9+9+Y Y &.&.].].n n 9 9 [ [ ' ' + +                 ",
"|+|+t.t.L.L.1+1+2+2+&+&+&+&+]+]+&+&+M.M.M.M.3+3+4+4+5+5+6+6+m.m.7+7+f.f.8+8+9+9+Y Y &.&.].].n n 9 9 [ [ ' ' + +                 ",
",+,+0+0+a+a+/+/+b+b+&+&+]+]+]+]+&+&+]+]+&+&+b+b+Y.Y.L.L.P.P.H.H.6.6.:.:.++++#.#.c+c+d+d+z z i i 5 5 e+e+f+f+@ @                 ",
",+,+0+0+a+a+/+/+b+b+&+&+]+]+]+]+&+&+]+]+&+&+b+b+Y.Y.L.L.P.P.H.H.6.6.:.:.++++#.#.c+c+d+d+z z i i 5 5 e+e+f+f+@ @                 ",
"|+|+P.P.g+g+b+b+h+h+M.M.]+]+&+&+]+]+]+]+&+&+h+h+b+b+g+g+i+i+m.m.j+j+:.:.k+k+k+k+%.%.&.&.z z n n l+l+[ [ k+k+k+k+                ",
"|+|+P.P.g+g+b+b+h+h+M.M.]+]+&+&+]+]+]+]+&+&+h+h+b+b+g+g+i+i+m.m.j+j+:.:.k+k+k+k+%.%.&.&.z z n n l+l+[ [ k+k+k+k+                ",
",+,+t.t.m+m+b+b+h+h+M.M.&+&+M.M.&+&+&+&+M.M.h+h+b+b+n+n+o+o+m.m.p+p+:.:.q+q+>.>.k+k+k+k+r+r+s+s+k+k+k+k+> > t+t+                ",
",+,+t.t.m+m+b+b+h+h+M.M.&+&+M.M.&+&+&+&+M.M.h+h+b+b+n+n+o+o+m.m.p+p+:.:.q+q+>.>.k+k+k+k+r+r+s+s+k+k+k+k+> > t+t+                ",
"h.h.I.I.u+u+b+b+h+h+h+h+M.M.M.M.&+&+M.M.h+h+h+h+b+b+v.v.v+v+h.h.w+w+_._.k+k+k+k+x+x+k+k+k+k+k+k+k+k+x+x+k+k+k+k+                ",
"h.h.I.I.u+u+b+b+h+h+h+h+M.M.M.M.&+&+M.M.h+h+h+h+b+b+v.v.v+v+h.h.w+w+_._.k+k+k+k+x+x+k+k+k+k+k+k+k+k+x+x+k+k+k+k+                ",
"n.n.|+|+>+>+y+y+b+b+h+h+h+h+h+h+h+h+h+h+h+h+b+b+z+z+A+A+,+,+7.7.B+B+k+k+x+x+x+x+k+k+b+b+x+x+x+x+b+b+k+k+x+x+x+x+k+k+            ",
"n.n.|+|+>+>+y+y+b+b+h+h+h+h+h+h+h+h+h+h+h+h+b+b+z+z+A+A+,+,+7.7.B+B+k+k+x+x+x+x+k+k+b+b+x+x+x+x+b+b+k+k+x+x+x+x+k+k+            ",
"0.0.C+C+k.k.i+i+5+5+b+b+b+b+b+b+b+b+b+b+b+b+D+D+i+i+k.k.E+E+F+F+f.f.k+k+x+x+x+x+k+k+G+G+x+x+x+x+G+G+k+k+x+x+x+x+k+k+            ",
"0.0.C+C+k.k.i+i+5+5+b+b+b+b+b+b+b+b+b+b+b+b+D+D+i+i+k.k.E+E+F+F+f.f.k+k+x+x+x+x+k+k+G+G+x+x+x+x+G+G+k+k+x+x+x+x+k+k+            ",
"B+B+x.x.m.m.H+H+P.P.I+I+b+b+J+J+J+J+b+b+u.u.K+K+l.l.h.h.0.0.B+B+L+L+M+M+k+k+k+k+k+k+b+b+b+b+b+b+b+b+k+k+k+k+k+k+                ",
"B+B+x.x.m.m.H+H+P.P.I+I+b+b+J+J+J+J+b+b+u.u.K+K+l.l.h.h.0.0.B+B+L+L+M+M+k+k+k+k+k+k+b+b+b+b+b+b+b+b+k+k+k+k+k+k+                ",
"z.z.N+N+0.0.O+O+,+,+x+x+b+b+J+J+J+J+b+b+x+x+,+,+h.h.j+j+<.<.Q.Q.P+P+k+k+x+x+x+x+x+x+k+k+k+k+k+k+k+k+x+x+x+x+x+x+k+k+            ",
"z.z.N+N+0.0.O+O+,+,+x+x+b+b+J+J+J+J+b+b+x+x+,+,+h.h.j+j+<.<.Q.Q.P+P+k+k+x+x+x+x+x+x+k+k+k+k+k+k+k+k+x+x+x+x+x+x+k+k+            ",
"Q+Q+_._.<.<.F+F+x+x+b+b+h+h+J+J+J+J+h+h+b+b+x+x+F+F+<.<.R+R+R.R.#.#.k+k+Q Q x+x+k+k+x+x+x+x+x+x+x+x+k+k+x+x+    k+k+            ",
"Q+Q+_._.<.<.F+F+x+x+b+b+h+h+J+J+J+J+h+h+b+b+x+x+F+F+<.<.R+R+R.R.#.#.k+k+Q Q x+x+k+k+x+x+x+x+x+x+x+x+k+k+x+x+    k+k+            ",
"+.+.'.'.R+R+:.:.x+x+b+b+h+h+h+h+h+h+h+h+b+b+x+x+_._.L+L+R.R.#.#.;.;.c.c.O O S+S+k+k+x+x+x+x+x+x+x+x+k+k+                        ",
"+.+.'.'.R+R+:.:.x+x+b+b+h+h+h+h+h+h+h+h+b+b+x+x+_._.L+L+R.R.#.#.;.;.c.c.O O S+S+k+k+x+x+x+x+x+x+x+x+k+k+                        ",
";.;.>.>.T+T+o.o.U+U+x+x+b+b+b+b+b+b+b+b+x+x+3.3.++++V+V+#.#.T T W+W+d.d.P P X+X+k+k+Y+Y+Z+Z+U.U.* * k+k+                        ",
";.;.>.>.T+T+o.o.U+U+x+x+b+b+b+b+b+b+b+b+x+x+3.3.++++V+V+#.#.T T W+W+d.d.P P X+X+k+k+Y+Y+Z+Z+U.U.* * k+k+                        "};
