/* XPM */
static char * counter1_xpm[] = {
"64 64 3 1",
" 	c #1A1A1A",
".	c #6DC2CA",
"+	c #DEEED6",
"    ....                    ....            ....                ",
"    ....                    ....            ....                ",
"    ....                    ....            ....                ",
"    ....                    ....            ....                ",
"++++++++....                                    ....        ....",
"++++++++....                                    ....        ....",
"++++++++....                                    ....        ....",
"++++++++....                                    ....        ....",
"                ........                            ........    ",
"                ........                            ........    ",
"                ........                            ........    ",
"                ........                            ........    ",
"                    ++++                            ....        ",
"                    ++++                            ....        ",
"                    ++++                            ....        ",
"                    ++++                            ....        ",
"                                                ....            ",
"                                                ....            ",
"                                                ....            ",
"                                                ....            ",
"                                                                ",
"                                                                ",
"                                                                ",
"                                                                ",
"                                                                ",
"                                                                ",
"                                                                ",
"                                                                ",
"                                                    ....        ",
"                                                    ....        ",
"                                                    ....        ",
"                                                    ....        ",
"                                                        ........",
"                                                        ........",
"                                                        ........",
"                                                        ........",
"                                                        ++++    ",
"                                                        ++++    ",
"                                                        ++++    ",
"                                                        ++++    ",
"                                                        ....    ",
"                                                        ....    ",
"                                                        ....    ",
"                                                        ....    ",
"                                                            ....",
"                                                            ....",
"                                                            ....",
"                                                            ....",
"                                                                ",
"                                                                ",
"                                                                ",
"                                                                ",
"    ....                                    ++++                ",
"    ....                                    ++++                ",
"    ....                                    ++++                ",
"    ....                                    ++++                ",
"                                        ....                    ",
"                                        ....                    ",
"                                        ....                    ",
"                                        ....                    ",
"    ....                        ++++............                ",
"    ....                        ++++............                ",
"    ....                        ++++............                ",
"    ....                        ++++............                "};
