/* XPM */
static char * counter1_xpm[] = {
"64 64 278 2",
"  	c #1F1F1F",
". 	c #140C1C",
"+ 	c #21201F",
"@ 	c #23211F",
"# 	c #24221F",
"$ 	c #242120",
"% 	c #24211F",
"& 	c #22211F",
"* 	c #757161",
"= 	c #222120",
"- 	c #26231F",
"; 	c #282420",
"> 	c #292420",
", 	c #292520",
"' 	c #2B2620",
") 	c #2A2520",
"! 	c #442434",
"~ 	c #20201F",
"{ 	c #27241F",
"] 	c #2C2620",
"^ 	c #2F2720",
"/ 	c #302820",
"( 	c #322820",
"_ 	c #312821",
": 	c #322920",
"< 	c #272320",
"[ 	c #2B2520",
"} 	c #2E2721",
"| 	c #302821",
"1 	c #342A20",
"2 	c #352A20",
"3 	c #372B20",
"4 	c #382D21",
"5 	c #2E2720",
"6 	c #202020",
"7 	c #25231F",
"8 	c #2C261F",
"9 	c #332A20",
"0 	c #362B21",
"a 	c #3A2D21",
"b 	c #3B2E21",
"c 	c #3D2F21",
"d 	c #3F3022",
"e 	c #3F3021",
"f 	c #D04648",
"g 	c #352B21",
"h 	c #201F1F",
"i 	c #262220",
"j 	c #332921",
"k 	c #423222",
"l 	c #453221",
"m 	c #463322",
"n 	c #413121",
"o 	c #3D2F22",
"p 	c #382C21",
"q 	c #413021",
"r 	c #443322",
"s 	c #493522",
"t 	c #4B3622",
"u 	c #4D3723",
"v 	c #4C3722",
"w 	c #4E3823",
"x 	c #483422",
"y 	c #453222",
"z 	c #3A2D20",
"A 	c #423122",
"B 	c #503823",
"C 	c #513A23",
"D 	c #543A23",
"E 	c #553B23",
"F 	c #523A23",
"G 	c #503923",
"H 	c #473422",
"I 	c #342B21",
"J 	c #483421",
"K 	c #4D3722",
"L 	c #4F3822",
"M 	c #543B23",
"N 	c #583D23",
"O 	c #5A3E23",
"P 	c #5C3E24",
"Q 	c #5B3F23",
"R 	c #5C3F23",
"S 	c #5A3D24",
"T 	c #593D23",
"U 	c #563C23",
"V 	c #533A23",
"W 	c #22201F",
"X 	c #2A241F",
"Y 	c #342920",
"Z 	c #3F2F21",
"` 	c #443321",
" .	c #523A22",
"..	c #5F4124",
"+.	c #604124",
"@.	c #624224",
"#.	c #614224",
"$.	c #5E4024",
"%.	c #5A3E24",
"&.	c #573C23",
"*.	c #523922",
"=.	c #2D2620",
"-.	c #423121",
";.	c #4E3822",
">.	c #5B3E23",
",.	c #634324",
"'.	c #664524",
").	c #684524",
"!.	c #694624",
"~.	c #664424",
"{.	c #372C20",
"].	c #3C2E21",
"^.	c #4C3622",
"/.	c #523923",
"(.	c #604123",
"_.	c #6C4725",
":.	c #6E4825",
"<.	c #6F4A25",
"[.	c #704925",
"}.	c #714A25",
"|.	c #6E4925",
"1.	c #6D4825",
"2.	c #664425",
"3.	c #624324",
"4.	c #5E3F23",
"5.	c #25221F",
"6.	c #2D2720",
"7.	c #4A3622",
"8.	c #614124",
"9.	c #6B4725",
"0.	c #724A25",
"a.	c #754C25",
"b.	c #774D26",
"c.	c #784E26",
"d.	c #784E25",
"e.	c #754C26",
"f.	c #734B25",
"g.	c #674524",
"h.	c #29241F",
"i.	c #2F2820",
"j.	c #352B20",
"k.	c #3C2E22",
"l.	c #433222",
"m.	c #493622",
"n.	c #553C22",
"o.	c #654424",
"p.	c #6B4624",
"q.	c #704A25",
"r.	c #7C4F25",
"s.	c #7D5026",
"t.	c #7F5126",
"u.	c #7F5226",
"v.	c #7B5026",
"w.	c #6D4824",
"x.	c #1E1E1E",
"y.	c #2B251F",
"z.	c #312920",
"A.	c #382D20",
"B.	c #4B3623",
"C.	c #5F4024",
"D.	c #644324",
"E.	c #7A4F26",
"F.	c #7E5026",
"G.	c #825426",
"H.	c #845426",
"I.	c #D27D2C",
"J.	c #865526",
"K.	c #825326",
"L.	c #7F5225",
"M.	c #764D26",
"N.	c #6A4725",
"O.	c #483522",
"P.	c #4E3722",
"Q.	c #614123",
"R.	c #684525",
"S.	c #794F25",
"T.	c #875627",
"U.	c #8B5826",
"V.	c #8B5827",
"W.	c #895727",
"X.	c #7A4F25",
"Y.	c #352A21",
"Z.	c #5D3F24",
"`.	c #6B4625",
" +	c #774D25",
".+	c #7D5125",
"++	c #845526",
"@+	c #895726",
"#+	c #8F5927",
"$+	c #DAD45E",
"%+	c #915B27",
"&+	c #8F5A27",
"*+	c #794E26",
"=+	c #29251F",
"-+	c #3E2F21",
";+	c #513A22",
">+	c #5F4123",
",+	c #7A4E25",
"'+	c #815226",
")+	c #875626",
"!+	c #8D5827",
"~+	c #DEEED6",
"{+	c #985F28",
"]+	c #8E5927",
"^+	c #885627",
"/+	c #7C5026",
"(+	c #593E23",
"_+	c #604224",
":+	c #6E4824",
"<+	c #7B4F25",
"[+	c #825327",
"}+	c #895627",
"|+	c #905B27",
"1+	c #925B27",
"2+	c #8B5727",
"3+	c #764D25",
"4+	c #2A2420",
"5+	c #302720",
"6+	c #372B21",
"7+	c #4C3623",
"8+	c #533A22",
"9+	c #855526",
"0+	c #7E5025",
"a+	c #362C21",
"b+	c #6E4924",
"c+	c #7D5126",
"d+	c #845427",
"e+	c #854C30",
"f+	c #232120",
"g+	c #3D2E21",
"h+	c #443222",
"i+	c #614223",
"j+	c #6F4925",
"k+	c #7C4F26",
"l+	c #835327",
"m+	c #855426",
"n+	c #5F4023",
"o+	c #6C4824",
"p+	c #7A4E26",
"q+	c #815227",
"r+	c #282320",
"s+	c #503922",
"t+	c #644325",
"u+	c #694625",
"v+	c #7B4F26",
"w+	c #835426",
"x+	c #835326",
"y+	c #252320",
"z+	c #3A2E21",
"A+	c #403022",
"B+	c #473522",
"C+	c #6C4825",
"D+	c #734C25",
"E+	c #835427",
"F+	c #744B25",
"G+	c #513923",
"H+	c #5E4023",
"I+	c #634224",
"J+	c #7C5025",
"K+	c #4E4A4E",
"L+	c #815326",
"M+	c #794D26",
"N+	c #27231F",
"O+	c #413122",
"P+	c #734B26",
"Q+	c #6B4724",
"R+	c #312921",
"S+	c #644424",
"T+	c #604223",
"U+	c #453322",
"V+	c #262320",
"W+	c #322921",
"X+	c #372C21",
"Y+	c #433221",
"Z+	c #513922",
"`+	c #5D4023",
" @	c #654324",
".@	c #5D4024",
"                                                                                                                                ",
"                                                                                                                                ",
"                                                                                                            . . . .             ",
"                                                                                                            . . . .             ",
"                                                                            + + @ @ @ @ # # $ $ % % # # & & . . * * . .         ",
"                                                                            + + @ @ @ @ # # $ $ % % # # & & . . * * . .         ",
"                                                                + + = = - - ; ; > > , , ' ' ) ) ' ' ) ) . . * * ! ! * * . . + + ",
"                                                                + + = = - - ; ; > > , , ' ' ) ) ' ' ) ) . . * * ! ! * * . . + + ",
"                                                        ~ ~ $ $ { { > > ] ] ^ ^ / / ( ( _ _ : : . . . . . . * * ! ! ! ! . . < < ",
"                                                        ~ ~ $ $ { { > > ] ] ^ ^ / / ( ( _ _ : : . . . . . . * * ! ! ! ! . . < < ",
"                                                    # # < < [ [ } } | | 1 1 2 2 3 3 4 4 4 4 . . ! ! * * ! ! . . ! ! . . . . 5 5 ",
"                                                    # # < < [ [ } } | | 1 1 2 2 3 3 4 4 4 4 . . ! ! * * ! ! . . ! ! . . . . 5 5 ",
"                                            6 6 7 7 , , 8 8 | | 9 9 0 0 a a b b c c d d e e . . * * f f * * ! ! . . a a . . g g ",
"                                            6 6 7 7 , , 8 8 | | 9 9 0 0 a a b b c c d d e e . . * * f f * * ! ! . . a a . . g g ",
"                                        h h i i [ [ 5 5 j j 0 0 a a c c e e k k l l m m m m . . ! ! ! ! ! ! ! ! . . n n o o a a ",
"                                        h h i i [ [ 5 5 j j 0 0 a a c c e e k k l l m m m m . . ! ! ! ! ! ! ! ! . . n n o o a a ",
"                                    + + - - [ [ | | g g p p b b q q r r m m s s t t u u v v w w . . . . . . . . s s x x y y n n ",
"                                    + + - - [ [ | | g g p p b b q q r r m m s s t t u u v v w w . . . . . . . . s s x x y y n n ",
"                                ~ ~ - - [ [ / / 2 2 z z c c A A m m s s v v B B C C D D E E E E E E E E D D F F G G v v t t H H ",
"                                ~ ~ - - [ [ / / 2 2 z z c c A A m m s s v v B B C C D D E E E E E E E E D D F F G G v v t t H H ",
"                                # # ) ) / / I I a a d d r r J J K K L L M M M M N N O O P P Q Q R R R R S S T T U U V V G G v v ",
"                                # # ) ) / / I I a a d d r r J J K K L L M M M M N N O O P P Q Q R R R R S S T T U U V V G G v v ",
"                            W W X X 5 5 Y Y a a Z Z ` ` s s v v  . .E E N N R R ....+.+.@.@.@.@.@.@.@.@.#.#.....$.$.%.%.&.&.*.*.",
"                            W W X X 5 5 Y Y a a Z Z ` ` s s v v  . .E E N N R R ....+.+.@.@.@.@.@.@.@.@.#.#.....$.$.%.%.&.&.*.*.",
"                        + + i i =.=._ _ p p c c -.-.s s ;.;.V V U U >.>.....,.,.'.'.).).!.!.!.!.!.!.!.!.).).~.~.,.,.....Q Q T T ",
"                        + + i i =.=._ _ p p c c -.-.s s ;.;.V V U U >.>.....,.,.'.'.).).!.!.!.!.!.!.!.!.).).~.~.,.,.....Q Q T T ",
"                        # # , , | | {.{.].].k k H H ^.^././.N N R R (.(.~.~.!.!._._.:.:.<.<.[.[.}.}.[.[.|.|.1.1.!.!.2.2.3.3.4.4.",
"                        # # , , | | {.{.].].k k H H ^.^././.N N R R (.(.~.~.!.!._._.:.:.<.<.[.[.}.}.[.[.|.|.1.1.!.!.2.2.3.3.4.4.",
"                        5.5.6.6.j j p p d d m m 7.7././.&.&.R R 8.8.~.~.9.9.|.|.0.0.a.a.b.b.c.c.d.d.b.b.e.e.f.f.[.[.9.9.g.g.3.3.",
"                        5.5.6.6.j j p p d d m m 7.7././.&.&.R R 8.8.~.~.9.9.|.|.0.0.a.a.b.b.c.c.d.d.b.b.e.e.f.f.[.[.9.9.g.g.3.3.",
"                    @ @ h.h.i.i.j.j.k.k.l.l.m.m.;.;.n.n.%.%.(.(.o.o.p.p.q.q.a.a.c.c.r.r.s.s.t.t.u.u.s.s.v.v.d.d.a.a.0.0.w.w.g.g.",
"                    @ @ h.h.i.i.j.j.k.k.l.l.m.m.;.;.n.n.%.%.(.(.o.o.p.p.q.q.a.a.c.c.r.r.s.s.t.t.u.u.s.s.v.v.d.d.a.a.0.0.w.w.g.g.",
"            x.x.    # # y.y.z.z.A.A.e e m m B.B. . .N N C.C.D.D.9.9.q.q.a.a.E.E.F.F.G.G.H.H.I.I.J.J.H.H.K.K.L.L.E.E.M.M.0.0.N.N.",
"            x.x.    # # y.y.z.z.A.A.e e m m B.B. . .N N C.C.D.D.9.9.q.q.a.a.E.E.F.F.G.G.H.H.I.I.J.J.H.H.K.K.L.L.E.E.M.M.0.0.N.N.",
"                    5.5.6.6.1 1 a a n n O.O.P.P.E E R R Q.Q.R.R.|.|.f.f.S.S.t.t.H.H.T.T.U.U.I.I.I.I.V.V.W.W.H.H.t.t.X.X.a.a.q.q.",
"                    5.5.6.6.1 1 a a n n O.O.P.P.E E R R Q.Q.R.R.|.|.f.f.S.S.t.t.H.H.T.T.U.U.I.I.I.I.V.V.W.W.H.H.t.t.X.X.a.a.q.q.",
"                + + { { 5 5 Y.Y.].].-.-.s s G G U U Z.Z.D.D.`.`.0.0. + +.+.+++++@+@+#+#+I.I.$+$+I.I.%+%+&+&+W.W.H.H.t.t.*+*+0.0.",
"                + + { { 5 5 Y.Y.].].-.-.s s G G U U Z.Z.D.D.`.`.0.0. + +.+.+++++@+@+#+#+I.I.$+$+I.I.%+%+&+&+W.W.H.H.t.t.*+*+0.0.",
"                ~ ~ =+=+/ / 0 0 -+-+r r 7.7.;+;+N N >+>+~.~.w.w.f.f.,+,+'+'+)+)+!+!+I.I.$+$+~+~+I.I.{+{+I.I.]+]+^+^+G.G./+/+e.e.",
"                ~ ~ =+=+/ / 0 0 -+-+r r 7.7.;+;+N N >+>+~.~.w.w.f.f.,+,+'+'+)+)+!+!+I.I.$+$+~+~+I.I.{+{+I.I.]+]+^+^+G.G./+/+e.e.",
"                W W > > / / 3 3 c c ` ` K K V V (+(+_+_+g.g.:+:+a.a.<+<+[+[+}+}+|+|+$+$+$+$+~+~+$+$+I.I.I.I.1+1+2+2+H.H.s.s.3+3+",
"                W W > > / / 3 3 c c ` ` K K V V (+(+_+_+g.g.:+:+a.a.<+<+[+[+}+}+|+|+$+$+$+$+~+~+$+$+I.I.I.I.1+1+2+2+H.H.s.s.3+3+",
"                & & 4+4+5+5+6+6+Z Z m m 7+7+8+8+O O Q.Q.).).|.|.M.M.F.F.H.H.V.V.! ! $+$+~+~+~+~+$+$+~+~+$+$+! ! !+!+9+9+0+0+ + +",
"                & & 4+4+5+5+6+6+Z Z m m 7+7+8+8+O O Q.Q.).).|.|.M.M.F.F.H.H.V.V.! ! $+$+~+~+~+~+$+$+~+~+$+$+! ! !+!+9+9+0+0+ + +",
"                = = > > / / a+a+c c m m K K M M %.%.Q.Q.).).b+b+a.a.c+c+d+d+! ! e+e+I.I.~+~+$+$+~+~+~+~+$+$+e+e+! ! d+d+F.F.3+3+",
"                = = > > / / a+a+c c m m K K M M %.%.Q.Q.).).b+b+a.a.c+c+d+d+! ! e+e+I.I.~+~+$+$+~+~+~+~+$+$+e+e+! ! d+d+F.F.3+3+",
"                f+f+) ) / / 6+6+g+g+h+h+7.7././.%.%.i+i+).).j+j+a.a.k+k+l+l+! ! e+e+I.I.$+$+I.I.$+$+$+$+I.I.e+e+! ! m+m+s.s. + +",
"                f+f+) ) / / 6+6+g+g+h+h+7.7././.%.%.i+i+).).j+j+a.a.k+k+l+l+! ! e+e+I.I.$+$+I.I.$+$+$+$+I.I.e+e+! ! m+m+s.s. + +",
"                + + < < 5 5 6+6+c c r r B.B././.(+(+n+n+~.~.o+o+f.f.p+p+t.t.! ! e+e+e+e+I.I.I.I.$+$+I.I.e+e+e+e+! ! q+q+E.E.f.f.",
"                + + < < 5 5 6+6+c c r r B.B././.(+(+n+n+~.~.o+o+f.f.p+p+t.t.! ! e+e+e+e+I.I.I.I.$+$+I.I.e+e+e+e+! ! q+q+E.E.f.f.",
"                ~ ~ r+r+5 5 2 2 ].].l.l.s s s+s+&.&.Z.Z.t+t+u+u+[.[. + +v+v+w+w+! ! e+e+e+e+e+e+e+e+e+e+e+e+! ! x+x+.+.+3+3+0.0.",
"                ~ ~ r+r+5 5 2 2 ].].l.l.s s s+s+&.&.Z.Z.t+t+u+u+[.[. + +v+v+w+w+! ! e+e+e+e+e+e+e+e+e+e+e+e+! ! x+x+.+.+3+3+0.0.",
"                    y+y+] ] 1 1 z+z+A+A+B+B+v v V V %.%.Q.Q.g.g.C+C+D+D+d.d.c+c+E+E+! ! ! ! ! ! ! ! ! ! ! ! [+[+c+c+d.d.F+F+:.:.",
"                    y+y+] ] 1 1 z+z+A+A+B+B+v v V V %.%.Q.Q.g.g.C+C+D+D+d.d.c+c+E+E+! ! ! ! ! ! ! ! ! ! ! ! [+[+c+c+d.d.F+F+:.:.",
"                    $ $ ' ' | | 6+6+-+-+` ` 7.7.G+G+U U H+H+I+I+u+u+:.:.f.f.c.c.J+J+u.u.! ! K+K+K+K+! ! L+L+F.F.M+M+a.a.q.q.u+u+",
"                    $ $ ' ' | | 6+6+-+-+` ` 7.7.G+G+U U H+H+I+I+u+u+:.:.f.f.c.c.J+J+u.u.! ! K+K+K+K+! ! L+L+F.F.M+M+a.a.q.q.u+u+",
"                    + + N+N+5 5 Y.Y.].].O+O+H H w w V V O O n+n+D.D.!.!.b+b+f.f. + +* * ! ! K+K+K+K+! ! * *  + +P+P+:.:.Q+Q+o.o.",
"                    + + N+N+5 5 Y.Y.].].O+O+H H w w V V O O n+n+D.D.!.!.b+b+f.f. + +* * ! ! K+K+K+K+! ! * *  + +P+P+:.:.Q+Q+o.o.",
"                        i i [ [ R+R+p p c c r r t t G G E E O O C.C.S+S+!.!.C+C+* * ! ! e+e+K+K+K+K+e+e+! ! * * C+C+!.!.~.~.T+T+",
"                        i i [ [ R+R+p p c c r r t t G G E E O O C.C.S+S+!.!.C+C+* * ! ! e+e+K+K+K+K+e+e+! ! * * C+C+!.!.~.~.T+T+",
"                        @ @ h.h.5 5 Y.Y.a a n n U+U+t t /./.&.&.O O C.C.I+I+~.~.* * ! ! e+e+e+e+e+e+e+e+! ! * * ).).S+S+....Q Q ",
"                        @ @ h.h.5 5 Y.Y.a a n n U+U+t t /./.&.&.O O C.C.I+I+~.~.* * ! ! e+e+e+e+e+e+e+e+! ! * * ).).S+S+....Q Q ",
"                            V+V+y.y.W+W+X+X+].].Y+Y+H H ^.^.Z+Z+E E O O `+`+Q.Q.3.3.* * ! ! ! ! ! ! ! ! * *  @ @8.8..@.@%.%.&.&.",
"                            V+V+y.y.W+W+X+X+].].Y+Y+H H ^.^.Z+Z+E E O O `+`+Q.Q.3.3.* * ! ! ! ! ! ! ! ! * *  @ @8.8..@.@%.%.&.&."};
