/* XPM */
static char * exit2_xpm[] = {
"64 64 6 1",
" 	c #4E4A4E",
".	c #442434",
"+	c #757161",
"@	c #346524",
"#	c #6DC2CA",
"$	c #8595A1",
"                                                                ",
"                                                                ",
"                                                                ",
"                                                                ",
"                                                                ",
"....  ++++++++++++++++++++++++++++++++++++++++++++++++++++++....",
"....  ++++++++++++++++++++++++++++++++++++++++++++++++++++++....",
"....  ++++++++++++++++++++++++++++++++++++++++++++++++++++++....",
"....  ++++++++++++++++++++++++++++    ++++++++++++++++++++++....",
"....  ++++++++++++++++++++++++++++    ++++..............++++....",
"....  ++++++++++++++++++++++++++++    ++++..............++++....",
"....  ++++++++++++++++++++++++++++    ++++..............++++....",
"....  ++++@@@@@@@@@@@@++++            ++++..............++++....",
"....  ++++@@@@@@@@@@@@++++            ++++..####$$$$$$$$++++....",
"....  ++++@@@@@@@@@@@@++++            ++++..####$$$$$$$$++++....",
"....  ++++@@@@@@@@@@@@++++            ++++..####$$$$$$$$++++....",
"....++++++++++++++    ++++++++++++++++++++..####$$$$$$$$++++....",
"....++++++++++++++    ++++++++++++++++++++..####$$$$$$$$++++....",
"....++++++++++++++    ++++++++++++++++++++..####$$$$$$$$++++....",
"....++++++++++++++    ++++++++++++++++++++..####$$$$$$$$++++....",
"....++++++++++++++    ++++++++++++++++++++..####$$$$$$$$++++....",
"....++++++++++++++    ++++++++++++++++++++..####$$$$$$$$++++....",
"....++++++++++++++    ++++++++++++++++++++..####$$$$$$$$++++....",
"....++++++++++++++    ++++++++++++++++++++..####$$$$$$$$++++....",
"....++++++++++++++++++++++++++@@@@++++++++..####$$$$$$$$++++....",
"....++++++++++++++++++++++++++@@@@++++++++..####$$$$$$$$++++....",
"....++++++++++++++++++++++++++@@@@++++++++..####$$$$$$$$++++....",
"....++++++++++++++++++++++++++@@@@++++++++..####$$$$$$$$++++....",
"....      @@@@        ++++@@@@@@@@        ..####$$$$$$$$++++....",
"....      @@@@        ++++@@@@@@@@        ..####$$$$$$$$++++....",
"....      @@@@        ++++@@@@@@@@        ..####$$$$$$$$++++....",
"....      @@@@        ++++@@@@@@@@        ..####$$$$$$$$++++....",
"....  ++++++++++++++++++++++++++++++++++++..####$$$$$$$$++++....",
"....  ++++++++++++++++++++++++++++++++++++..####$$$$$$$$++++....",
"....  ++++++++++++++++++++++++++++++++++++..####$$$$$$$$++++....",
"....  ++++++++++++++++++++++++++++++++++++..####$$$$$$$$++++....",
"....  ++++++++++++++++++++++++++++    ++++..####$$$$$$$$++++....",
"....  ++++++++++++++++++++++++++++    ++++..####$$$$$$$$++++....",
"....  ++++++++++++++++++++++++++++    ++++..####$$$$$$$$++++....",
"....  ++++++++++++++++++++++++++++    ++++..####$$$$$$$$++++....",
"....@@++++++++@@@@++++++++++++++++    ++++..####$$$$$$$$++++....",
"....@@++++++++@@@@++++++++++++++++    ++++..####$$$$$$$$++++....",
"....@@++++++++@@@@++++++++++++++++    ++++..####$$$$$$$$++++....",
"....@@++++++++@@@@++++++++++++++++    ++++..####$$$$$$$$++++....",
"....  @@@@                ++++            ..####$$$$$$$$++++....",
"....  @@@@                ++++            ..####$$$$$$$$++++....",
"....  @@@@                ++++            ..####$$$$$$$$++++....",
"....  @@@@                ++++            ..####$$$$$$$$++++....",
"....++++++++++++++++++++++++++++++++++++++..####$$$$$$$$++++....",
"....++++++++++++++++++++++++++++++++++++++..####$$$$$$$$++++....",
"....++++++++++++++++++++++++++++++++++++++..####$$$$$$$$++++....",
"....++++++++++++++++++++++++++++++++++++++..####$$$$$$$$++++....",
"....++++++++++++++    ++++++++++++++++++++..####$$$$$$$$++++....",
"....++++++++++++++    ++++++++++++++++++++              ++++....",
"....++++++++++++++    ++++++++++++++++++++              ++++....",
"....++++++++++++++    ++++++++++++++++++++              ++++....",
"....++++++++++++++    ++++++++++++++++@@@@              ++++....",
"....++++++++++++++    ++++++++++++++++@@@@++++++++++++++++++....",
"....++++++++++++++    ++++++++++++++++@@@@++++++++++++++++++....",
"....++++++++++++++    ++++++++++++++++@@@@++++++++++++++++++....",
"....      @@@@            ++++@@@@@@@@@@@@++++++++++++++++++....",
"................................................................",
"................................................................",
"................................................................"};
