/* XPM */
static char * floor_xpm[] = {
"64 64 3 1",
" 	c #757161",
".	c #4E4A4E",
"+	c #346524",
"                                                        ....    ",
"                                                        ....    ",
"                                                        ....    ",
"                                                        ....    ",
"                        ....                                    ",
"                        ....                                    ",
"                        ....                                    ",
"                        ....                                    ",
"    ++++                ....                            ....    ",
"    ++++                ....                            ....    ",
"    ++++                ....                            ....    ",
"    ++++                ....                            ....    ",
"................++++........    ++++++++++++    ............    ",
"................++++........    ++++++++++++    ............    ",
"................++++........    ++++++++++++    ............    ",
"................++++........    ++++++++++++    ............    ",
"        ....                            ....                    ",
"        ....                            ....                    ",
"        ....                            ....                    ",
"        ....                            ....                    ",
"        ....                            ....                    ",
"        ....                            ....                    ",
"        ....                            ....                    ",
"        ....                            ....                    ",
"        ....                                        ++++        ",
"        ....                                        ++++        ",
"        ....                                        ++++        ",
"        ....                                        ++++        ",
"    ........    ................++++........    ++++++++........",
"    ........    ................++++........    ++++++++........",
"    ........    ................++++........    ++++++++........",
"    ........    ................++++........    ++++++++........",
"                        ....                                    ",
"                        ....                                    ",
"                        ....                                    ",
"                        ....                                    ",
"                        ....                            ....    ",
"                        ....                            ....    ",
"                        ....                            ....    ",
"                        ....                            ....    ",
"    ++++            ++++++++        ++++                ....    ",
"    ++++            ++++++++        ++++                ....    ",
"    ++++            ++++++++        ++++                ....    ",
"    ++++            ++++++++        ++++                ....    ",
"....++++........++++........++++................    ............",
"....++++........++++........++++................    ............",
"....++++........++++........++++................    ............",
"....++++........++++........++++................    ............",
"        ....                                                    ",
"        ....                                                    ",
"        ....                                                    ",
"        ....                                                    ",
"        ....                            ....                    ",
"        ....                            ....                    ",
"        ....                            ....                    ",
"        ....                            ....                    ",
"        ++++    ++++++++                ....                ++++",
"        ++++    ++++++++                ....                ++++",
"        ++++    ++++++++                ....                ++++",
"        ++++    ++++++++                ....                ++++",
"    ........    ................++++............    ++++++++++++",
"    ........    ................++++............    ++++++++++++",
"    ........    ................++++............    ++++++++++++",
"    ........    ................++++............    ++++++++++++"};
