/* XPM */
static char * player_chest_xpm[] = {
"64 64 11 1",
" 	c #757161",
".	c #140C1C",
"+	c #4E4A4E",
"@	c #854C30",
"#	c #D27D2C",
"$	c #346524",
"%	c #DAD45E",
"&	c #442434",
"*	c #30346D",
"=	c #597DCE",
"-	c #6DC2CA",
"                    ........................            ++++    ",
"                    ........................            ++++    ",
"                    ........................            ++++    ",
"                    ........................            ++++    ",
"                ....@@@@@@@@############@@@@....                ",
"                ....@@@@@@@@############@@@@....                ",
"                ....@@@@@@@@############@@@@....                ",
"                ....@@@@@@@@############@@@@....                ",
"    $$$$    ....@@@@########@@@@############@@@@....    ++++    ",
"    $$$$    ....@@@@########@@@@############@@@@....    ++++    ",
"    $$$$    ....@@@@########@@@@############@@@@....    ++++    ",
"    $$$$    ....@@@@########@@@@############@@@@....    ++++    ",
"++++++++++++....@@@@%%%%################%%%%@@@@....++++++++    ",
"++++++++++++....@@@@%%%%################%%%%@@@@....++++++++    ",
"++++++++++++....@@@@%%%%################%%%%@@@@....++++++++    ",
"++++++++++++....@@@@%%%%################%%%%@@@@....++++++++    ",
"        ....@@@@@@@@####%%%%%%%%%%%%%%%%####@@@@@@@@....        ",
"        ....@@@@@@@@####%%%%%%%%%%%%%%%%####@@@@@@@@....        ",
"        ....@@@@@@@@####%%%%%%%%%%%%%%%%####@@@@@@@@....        ",
"        ....@@@@@@@@####%%%%%%%%%%%%%%%%####@@@@@@@@....        ",
"        ....@@@@&&&&####@@@@########@@@@####&&&&@@@@....        ",
"        ....@@@@&&&&####@@@@########@@@@####&&&&@@@@....        ",
"        ....@@@@&&&&####@@@@########@@@@####&&&&@@@@....        ",
"        ....@@@@&&&&####@@@@########@@@@####&&&&@@@@....        ",
"    &&&&....@@@@&&&&####@@@@@@@@####@@@@####&&&&@@@@....&&&&    ",
"    &&&&....@@@@&&&&####@@@@@@@@####@@@@####&&&&@@@@....&&&&    ",
"    &&&&....@@@@&&&&####@@@@@@@@####@@@@####&&&&@@@@....&&&&    ",
"    &&&&....@@@@&&&&####@@@@@@@@####@@@@####&&&&@@@@....&&&&    ",
"    &&&&....@@@@&&&&@@@@@@@@@@@@####@@@@@@@@&&&&@@@@....&&&&++++",
"    &&&&....@@@@&&&&@@@@@@@@@@@@####@@@@@@@@&&&&@@@@....&&&&++++",
"    &&&&....@@@@&&&&@@@@@@@@@@@@####@@@@@@@@&&&&@@@@....&&&&++++",
"    &&&&....@@@@&&&&@@@@@@@@@@@@####@@@@@@@@&&&&@@@@....&&&&++++",
"    &&&&....&&&&&&&&&&&&@@@@@@@@####@@@@&&&&&&&&&&&&....&&&&    ",
"    &&&&....&&&&&&&&&&&&@@@@@@@@####@@@@&&&&&&&&&&&&....&&&&    ",
"    &&&&....&&&&&&&&&&&&@@@@@@@@####@@@@&&&&&&&&&&&&....&&&&    ",
"    &&&&....&&&&&&&&&&&&@@@@@@@@####@@@@&&&&&&&&&&&&....&&&&    ",
"    &&&&@@@@....&&&&....@@@@@@@@@@@@@@@@....&&&&....@@@@&&&&    ",
"    &&&&@@@@....&&&&....@@@@@@@@@@@@@@@@....&&&&....@@@@&&&&    ",
"    &&&&@@@@....&&&&....@@@@@@@@@@@@@@@@....&&&&....@@@@&&&&    ",
"    &&&&@@@@....&&&&....@@@@@@@@@@@@@@@@....&&&&....@@@@&&&&    ",
"    &&&&####............&&&&@@@@@@@@&&&&............####&&&&    ",
"    &&&&####............&&&&@@@@@@@@&&&&............####&&&&    ",
"    &&&&####............&&&&@@@@@@@@&&&&............####&&&&    ",
"    &&&&####............&&&&@@@@@@@@&&&&............####&&&&    ",
"++++&&&&&&&&&&&&....****................****....&&&&&&&&&&&&++++",
"++++&&&&&&&&&&&&....****................****....&&&&&&&&&&&&++++",
"++++&&&&&&&&&&&&....****................****....&&&&&&&&&&&&++++",
"++++&&&&&&&&&&&&....****................****....&&&&&&&&&&&&++++",
"    &&&&@@@@@@@@....========--------========....@@@@@@@@&&&&    ",
"    &&&&@@@@@@@@....========--------========....@@@@@@@@&&&&    ",
"    &&&&@@@@@@@@....========--------========....@@@@@@@@&&&&    ",
"    &&&&@@@@@@@@....========--------========....@@@@@@@@&&&&    ",
"    &&&&@@@@    ........----------------........    @@@@&&&&    ",
"    &&&&@@@@    ........----------------........    @@@@&&&&    ",
"    &&&&@@@@    ........----------------........    @@@@&&&&    ",
"    &&&&@@@@    ........----------------........    @@@@&&&&    ",
"    &&&&####            ................            ####&&&&$$$$",
"    &&&&####            ................            ####&&&&$$$$",
"    &&&&####            ................            ####&&&&$$$$",
"    &&&&####            ................            ####&&&&$$$$",
"    ++++&&&&&&&&                                &&&&&&&&$$$$$$$$",
"    ++++&&&&&&&&                                &&&&&&&&$$$$$$$$",
"    ++++&&&&&&&&                                &&&&&&&&$$$$$$$$",
"    ++++&&&&&&&&                                &&&&&&&&$$$$$$$$"};
