/* XPM */
static char * player_left0_xpm[] = {
"64 64 13 1",
" 	c #757161",
".	c #140C1C",
"+	c #4E4A4E",
"@	c #854C30",
"#	c #D27D2C",
"$	c #DAD45E",
"%	c #346524",
"&	c #442434",
"*	c #D2AA99",
"=	c #DEEED6",
"-	c #597DCE",
";	c #30346D",
">	c #6DC2CA",
"                ........................                ++++    ",
"                ........................                ++++    ",
"                ........................                ++++    ",
"                ........................                ++++    ",
"            ....@@@@####$$$$########@@@@....                    ",
"            ....@@@@####$$$$########@@@@....                    ",
"            ....@@@@####$$$$########@@@@....                    ",
"            ....@@@@####$$$$########@@@@....                    ",
"    %%%%....@@@@$$$$$$$$################@@@@....        ++++    ",
"    %%%%....@@@@$$$$$$$$################@@@@....        ++++    ",
"    %%%%....@@@@$$$$$$$$################@@@@....        ++++    ",
"    %%%%....@@@@$$$$$$$$################@@@@....        ++++    ",
"++++++++....####@@@@@@@@&&&&@@@@@@@@########....++++++++++++    ",
"++++++++....####@@@@@@@@&&&&@@@@@@@@########....++++++++++++    ",
"++++++++....####@@@@@@@@&&&&@@@@@@@@########....++++++++++++    ",
"++++++++....####@@@@@@@@&&&&@@@@@@@@########....++++++++++++    ",
"        ++++....&&&&****&&&&@@@@####@@@@####....                ",
"        ++++....&&&&****&&&&@@@@####@@@@####....                ",
"        ++++....&&&&****&&&&@@@@####@@@@####....                ",
"        ++++....&&&&****&&&&@@@@####@@@@####....                ",
"        ++++....$$$$....****&&&&@@@@####@@@@@@@@....            ",
"        ++++....$$$$....****&&&&@@@@####@@@@@@@@....            ",
"        ++++....$$$$....****&&&&@@@@####@@@@@@@@....            ",
"        ++++....$$$$....****&&&&@@@@####@@@@@@@@....            ",
"        ++++....====....$$$$&&&&@@@@@@@@@@@@@@@@....%%%%        ",
"        ++++....====....$$$$&&&&@@@@@@@@@@@@@@@@....%%%%        ",
"        ++++....====....$$$$&&&&@@@@@@@@@@@@@@@@....%%%%        ",
"        ++++....====....$$$$&&&&@@@@@@@@@@@@@@@@....%%%%        ",
"    ++++++++....@@@@********####&&&&@@@@@@@@@@@@@@@@....++++++++",
"    ++++++++....@@@@********####&&&&@@@@@@@@@@@@@@@@....++++++++",
"    ++++++++....@@@@********####&&&&@@@@@@@@@@@@@@@@....++++++++",
"    ++++++++....@@@@********####&&&&@@@@@@@@@@@@@@@@....++++++++",
"                ....@@@@####----;;;;....@@@@&&&&@@@@....        ",
"                ....@@@@####----;;;;....@@@@&&&&@@@@....        ",
"                ....@@@@####----;;;;....@@@@&&&&@@@@....        ",
"                ....@@@@####----;;;;....@@@@&&&&@@@@....        ",
"                ....---->>>>----;;;;....&&&&&&&&@@@@....++++    ",
"                ....---->>>>----;;;;....&&&&&&&&@@@@....++++    ",
"                ....---->>>>----;;;;....&&&&&&&&@@@@....++++    ",
"                ....---->>>>----;;;;....&&&&&&&&@@@@....++++    ",
"    %%%%    ....****>>>>;;;;;;;;;;;;................    ++++    ",
"    %%%%    ....****>>>>;;;;;;;;;;;;................    ++++    ",
"    %%%%    ....****>>>>;;;;;;;;;;;;................    ++++    ",
"    %%%%    ....****>>>>;;;;;;;;;;;;................    ++++    ",
"++++%%%%++++....$$$$####....--------;;;;....++++    ++++++++++++",
"++++%%%%++++....$$$$####....--------;;;;....++++    ++++++++++++",
"++++%%%%++++....$$$$####....--------;;;;....++++    ++++++++++++",
"++++%%%%++++....$$$$####....--------;;;;....++++    ++++++++++++",
"        ++++    ........---->>>>--------;;;;....                ",
"        ++++    ........---->>>>--------;;;;....                ",
"        ++++    ........---->>>>--------;;;;....                ",
"        ++++    ........---->>>>--------;;;;....                ",
"            ....;;;;;;;;--------;;;;............                ",
"            ....;;;;;;;;--------;;;;............                ",
"            ....;;;;;;;;--------;;;;............                ",
"            ....;;;;;;;;--------;;;;............                ",
"                ............;;;;====####....                %%%%",
"                ............;;;;====####....                %%%%",
"                ............;;;;====####....                %%%%",
"                ............;;;;====####....                %%%%",
"    ++++++++                ............    ++++    %%%%%%%%%%%%",
"    ++++++++                ............    ++++    %%%%%%%%%%%%",
"    ++++++++                ............    ++++    %%%%%%%%%%%%",
"    ++++++++                ............    ++++    %%%%%%%%%%%%"};
