/* XPM */
static char * wall_xpm[] = {
"64 64 5 1",
" 	c #8595A1",
".	c #6DC2CA",
"+	c #757161",
"@	c #4E4A4E",
"#	c #442434",
"        ....            ................            ............",
"        ....            ................            ............",
"        ....            ................            ............",
"        ....            ................            ............",
"    ++++        ++++                        ++++                ",
"    ++++        ++++                        ++++                ",
"    ++++        ++++                        ++++                ",
"    ++++        ++++                        ++++                ",
"    ++++        ++++                        ++++                ",
"    ++++        ++++                        ++++                ",
"    ++++        ++++                        ++++                ",
"    ++++        ++++                        ++++                ",
"    ++++++++++++++++++++++++++++++++++++++++++++++++++++++++    ",
"    ++++++++++++++++++++++++++++++++++++++++++++++++++++++++    ",
"    ++++++++++++++++++++++++++++++++++++++++++++++++++++++++    ",
"    ++++++++++++++++++++++++++++++++++++++++++++++++++++++++    ",
"++++                    ++++++++++++++++            ++++++++++++",
"++++                    ++++++++++++++++            ++++++++++++",
"++++                    ++++++++++++++++            ++++++++++++",
"++++                    ++++++++++++++++            ++++++++++++",
"++++                    ++++        ++++                        ",
"++++                    ++++        ++++                        ",
"++++                    ++++        ++++                        ",
"++++                    ++++        ++++                        ",
"++++    ............    ++++    ....++++    ............        ",
"++++    ............    ++++    ....++++    ............        ",
"++++    ............    ++++    ....++++    ............        ",
"++++    ............    ++++    ....++++    ............        ",
"@@@@++++++++++++++++++++@@@@++++++++@@@@++++++++++++++++++++++++",
"@@@@++++++++++++++++++++@@@@++++++++@@@@++++++++++++++++++++++++",
"@@@@++++++++++++++++++++@@@@++++++++@@@@++++++++++++++++++++++++",
"@@@@++++++++++++++++++++@@@@++++++++@@@@++++++++++++++++++++++++",
"@@@@++++++++++++++++++++@@@@++++++++@@@@++++++++++++++++++++++++",
"@@@@++++++++++++++++++++@@@@++++++++@@@@++++++++++++++++++++++++",
"@@@@++++++++++++++++++++@@@@++++++++@@@@++++++++++++++++++++++++",
"@@@@++++++++++++++++++++@@@@++++++++@@@@++++++++++++++++++++++++",
"@@@@@@@@@@@@@@@@@@@@@@@@@@@@@@@@@@@@@@@@@@@@@@@@@@@@@@@@@@@@@@@@",
"@@@@@@@@@@@@@@@@@@@@@@@@@@@@@@@@@@@@@@@@@@@@@@@@@@@@@@@@@@@@@@@@",
"@@@@@@@@@@@@@@@@@@@@@@@@@@@@@@@@@@@@@@@@@@@@@@@@@@@@@@@@@@@@@@@@",
"@@@@@@@@@@@@@@@@@@@@@@@@@@@@@@@@@@@@@@@@@@@@@@@@@@@@@@@@@@@@@@@@",
"++++++++++++@@@@++++++++++++++++++++++++++++++++@@@@++++++++++++",
"++++++++++++@@@@++++++++++++++++++++++++++++++++@@@@++++++++++++",
"++++++++++++@@@@++++++++++++++++++++++++++++++++@@@@++++++++++++",
"++++++++++++@@@@++++++++++++++++++++++++++++++++@@@@++++++++++++",
"++++++++++++@@@@++++++++++++++++++++++++++++++++@@@@++++++++++++",
"++++++++++++@@@@++++++++++++++++++++++++++++++++@@@@++++++++++++",
"++++++++++++@@@@++++++++++++++++++++++++++++++++@@@@++++++++++++",
"++++++++++++@@@@++++++++++++++++++++++++++++++++@@@@++++++++++++",
"@@@@++++++++@@@@@@@@@@@@@@@@@@@@@@@@@@@@@@@@@@@@@@@@@@@@@@@@@@@@",
"@@@@++++++++@@@@@@@@@@@@@@@@@@@@@@@@@@@@@@@@@@@@@@@@@@@@@@@@@@@@",
"@@@@++++++++@@@@@@@@@@@@@@@@@@@@@@@@@@@@@@@@@@@@@@@@@@@@@@@@@@@@",
"@@@@++++++++@@@@@@@@@@@@@@@@@@@@@@@@@@@@@@@@@@@@@@@@@@@@@@@@@@@@",
"@@@@@@@@@@@@++++++++++++++++@@@@####++++++++++++++++++++++++@@@@",
"@@@@@@@@@@@@++++++++++++++++@@@@####++++++++++++++++++++++++@@@@",
"@@@@@@@@@@@@++++++++++++++++@@@@####++++++++++++++++++++++++@@@@",
"@@@@@@@@@@@@++++++++++++++++@@@@####++++++++++++++++++++++++@@@@",
"++++++++####++++++++++++++++@@@@####++++++++++++++++++++++++####",
"++++++++####++++++++++++++++@@@@####++++++++++++++++++++++++####",
"++++++++####++++++++++++++++@@@@####++++++++++++++++++++++++####",
"++++++++####++++++++++++++++@@@@####++++++++++++++++++++++++####",
"################################################################",
"################################################################",
"################################################################",
"################################################################"};
