/* XPM */
static char * up0_xpm[] = {
"64 64 5 1",
" 	c None",
".	c #140C1C",
"+	c #8595A1",
"@	c #DEEED6",
"#	c #757161",
"                                                                ",
"                                                                ",
"                                                                ",
"                                                                ",
"                        ................                        ",
"                        ................                        ",
"                        ................                        ",
"                        ................                        ",
"                    ....++++@@@@@@@@++++....                    ",
"                    ....++++@@@@@@@@++++....                    ",
"                    ....++++@@@@@@@@++++....                    ",
"                    ....++++@@@@@@@@++++....                    ",
"                ....++++@@@@@@@@@@@@@@@@++++....                ",
"                ....++++@@@@@@@@@@@@@@@@++++....                ",
"                ....++++@@@@@@@@@@@@@@@@++++....                ",
"                ....++++@@@@@@@@@@@@@@@@++++....                ",
"                ....++++@@@@@@@@@@@@@@@@++++....                ",
"                ....++++@@@@@@@@@@@@@@@@++++....                ",
"                ....++++@@@@@@@@@@@@@@@@++++....                ",
"                ....++++@@@@@@@@@@@@@@@@++++....                ",
"                ....++++++++++++++++++++++++....                ",
"                ....++++++++++++++++++++++++....                ",
"                ....++++++++++++++++++++++++....                ",
"                ....++++++++++++++++++++++++....                ",
"                ....####++++########++++####....                ",
"                ....####++++########++++####....                ",
"                ....####++++########++++####....                ",
"                ....####++++########++++####....                ",
"                    ....####++++++++####....                    ",
"                    ....####++++++++####....                    ",
"                    ....####++++++++####....                    ",
"                    ....####++++++++####....                    ",
"                ....++++########++++++++####....                ",
"                ....++++########++++++++####....                ",
"                ....++++########++++++++####....                ",
"                ....++++########++++++++####....                ",
"            ....@@@@....####++++@@@@####....++++....            ",
"            ....@@@@....####++++@@@@####....++++....            ",
"            ....@@@@....####++++@@@@####....++++....            ",
"            ....@@@@....####++++@@@@####....++++....            ",
"            ........    ....####++++....    ....                ",
"            ........    ....####++++....    ....                ",
"            ........    ....####++++....    ....                ",
"            ........    ....####++++....    ....                ",
"                    ....########@@@@....                        ",
"                    ....########@@@@....                        ",
"                    ....########@@@@....                        ",
"                    ....########@@@@....                        ",
"                ####....++++....++++++++....####                ",
"                ####....++++....++++++++....####                ",
"                ####....++++....++++++++....####                ",
"                ####....++++....++++++++....####                ",
"            ########........####....++++....########            ",
"            ########........####....++++....########            ",
"            ########........####....++++....########            ",
"            ########........####....++++....########            ",
"            ####################....@@@@####....####            ",
"            ####################....@@@@####....####            ",
"            ####################....@@@@####....####            ",
"            ####################....@@@@####....####            ",
"                ####################........####                ",
"                ####################........####                ",
"                ####################........####                ",
"                ####################........####                "};
