/* XPM */
static char * right_0_xpm[] = {
"64 64 5 1",
" 	c None",
".	c #140C1C",
"+	c #757161",
"@	c #442434",
"#	c #D04648",
"                                                                ",
"                                                                ",
"                                                                ",
"                                                                ",
"                                                                ",
"                                                                ",
"                                                                ",
"                                                                ",
"                    ........                                    ",
"                    ........                                    ",
"                    ........                                    ",
"                    ........                                    ",
"                ....++++....                                    ",
"                ....++++....                                    ",
"                ....++++....                                    ",
"                ....++++....                                    ",
"            ....++++@@@@++++....                                ",
"            ....++++@@@@++++....                                ",
"            ....++++@@@@++++....                                ",
"            ....++++@@@@++++....                                ",
"            ....@@@@@@@@++++............                        ",
"            ....@@@@@@@@++++............                        ",
"            ....@@@@@@@@++++............                        ",
"            ....@@@@@@@@++++............                        ",
"            ........@@@@....@@@@++++@@@@....                    ",
"            ........@@@@....@@@@++++@@@@....                    ",
"            ........@@@@....@@@@++++@@@@....                    ",
"            ........@@@@....@@@@++++@@@@....                    ",
"            ....    ....@@@@++++####++++....                    ",
"            ....    ....@@@@++++####++++....                    ",
"            ....    ....@@@@++++####++++....                    ",
"            ....    ....@@@@++++####++++....                    ",
"                    ....@@@@@@@@@@@@@@@@....                    ",
"                    ....@@@@@@@@@@@@@@@@....                    ",
"                    ....@@@@@@@@@@@@@@@@....                    ",
"                    ....@@@@@@@@@@@@@@@@....                    ",
"                        ................                        ",
"                        ................                        ",
"                        ................                        ",
"                        ................                        ",
"                                                                ",
"                                                                ",
"                                                                ",
"                                                                ",
"                                                                ",
"                                                                ",
"                                                                ",
"                                                                ",
"                        ++++++++++++++++                        ",
"                        ++++++++++++++++                        ",
"                        ++++++++++++++++                        ",
"                        ++++++++++++++++                        ",
"                    ++++++++++++++++++++++++                    ",
"                    ++++++++++++++++++++++++                    ",
"                    ++++++++++++++++++++++++                    ",
"                    ++++++++++++++++++++++++                    ",
"                        ++++++++++++++++                        ",
"                        ++++++++++++++++                        ",
"                        ++++++++++++++++                        ",
"                        ++++++++++++++++                        ",
"                                                                ",
"                                                                ",
"                                                                ",
"                                                                "};
