/* XPM */
static char * up_0_xpm[] = {
"64 64 4 1",
" 	c None",
".	c #140C1C",
"+	c #757161",
"@	c #442434",
"                                                                ",
"                                                                ",
"                                                                ",
"                                                                ",
"                                                                ",
"                                                                ",
"                                                                ",
"                                                                ",
"                ........                ........                ",
"                ........                ........                ",
"                ........                ........                ",
"                ........                ........                ",
"            ....++++....                ....++++....            ",
"            ....++++....                ....++++....            ",
"            ....++++....                ....++++....            ",
"            ....++++....                ....++++....            ",
"        ....++++@@@@++++....        ....++++@@@@++++....        ",
"        ....++++@@@@++++....        ....++++@@@@++++....        ",
"        ....++++@@@@++++....        ....++++@@@@++++....        ",
"        ....++++@@@@++++....        ....++++@@@@++++....        ",
"        ....@@@@@@@@++++................++++@@@@@@@@....        ",
"        ....@@@@@@@@++++................++++@@@@@@@@....        ",
"        ....@@@@@@@@++++................++++@@@@@@@@....        ",
"        ....@@@@@@@@++++................++++@@@@@@@@....        ",
"        ........@@@@....@@@@++++++++@@@@....@@@@........        ",
"        ........@@@@....@@@@++++++++@@@@....@@@@........        ",
"        ........@@@@....@@@@++++++++@@@@....@@@@........        ",
"        ........@@@@....@@@@++++++++@@@@....@@@@........        ",
"        ....    ........@@@@++++++++@@@@........    ....        ",
"        ....    ........@@@@++++++++@@@@........    ....        ",
"        ....    ........@@@@++++++++@@@@........    ....        ",
"        ....    ........@@@@++++++++@@@@........    ....        ",
"                    ....@@@@@@@@@@@@@@@@....                    ",
"                    ....@@@@@@@@@@@@@@@@....                    ",
"                    ....@@@@@@@@@@@@@@@@....                    ",
"                    ....@@@@@@@@@@@@@@@@....                    ",
"                        ................                        ",
"                        ................                        ",
"                        ................                        ",
"                        ................                        ",
"                                                                ",
"                                                                ",
"                                                                ",
"                                                                ",
"                                                                ",
"                                                                ",
"                                                                ",
"                                                                ",
"                        ++++++++++++++++                        ",
"                        ++++++++++++++++                        ",
"                        ++++++++++++++++                        ",
"                        ++++++++++++++++                        ",
"                    ++++++++++++++++++++++++                    ",
"                    ++++++++++++++++++++++++                    ",
"                    ++++++++++++++++++++++++                    ",
"                    ++++++++++++++++++++++++                    ",
"                        ++++++++++++++++                        ",
"                        ++++++++++++++++                        ",
"                        ++++++++++++++++                        ",
"                        ++++++++++++++++                        ",
"                                                                ",
"                                                                ",
"                                                                ",
"                                                                "};
