/* XPM */
static char * walk_right_1_xpm[] = {
"64 64 5 1",
" 	c None",
".	c #140C1C",
"+	c #442434",
"@	c #757161",
"#	c #D04648",
"                                                                ",
"                                                                ",
"                                                                ",
"                                                                ",
"                                                                ",
"                                                                ",
"                                                                ",
"                                                                ",
"                                                                ",
"                                                                ",
"                                                                ",
"                                                                ",
"                                                                ",
"                                                                ",
"                                                                ",
"                                                                ",
"                                                                ",
"                                                                ",
"                                                                ",
"                                                                ",
"                                                                ",
"                                                                ",
"                                                                ",
"                                                                ",
"                                                                ",
"                                                                ",
"                                                                ",
"                                                                ",
"                ........                ........                ",
"                ........                ........                ",
"                ........                ........                ",
"                ........                ........                ",
"                ....    ................    ....                ",
"                ....    ................    ....                ",
"                ....    ................    ....                ",
"                ....    ................    ....                ",
"            ............++++@@@@@@@@++++............            ",
"            ............++++@@@@@@@@++++............            ",
"            ............++++@@@@@@@@++++............            ",
"            ............++++@@@@@@@@++++............            ",
"            ....@@@@....@@@@@@@@####@@@@....@@@@....            ",
"            ....@@@@....@@@@@@@@####@@@@....@@@@....            ",
"            ....@@@@....@@@@@@@@####@@@@....@@@@....            ",
"            ....@@@@....@@@@@@@@####@@@@....@@@@....            ",
"            @@@@........++++++++++++++++........@@@@            ",
"            @@@@........++++++++++++++++........@@@@            ",
"            @@@@........++++++++++++++++........@@@@            ",
"            @@@@........++++++++++++++++........@@@@            ",
"            ....@@@@@@@@................@@@@@@@@....            ",
"            ....@@@@@@@@................@@@@@@@@....            ",
"            ....@@@@@@@@................@@@@@@@@....            ",
"            ....@@@@@@@@................@@@@@@@@....            ",
"            ....@@@@....@@@@@@@@@@@@@@@@....@@@@....            ",
"            ....@@@@....@@@@@@@@@@@@@@@@....@@@@....            ",
"            ....@@@@....@@@@@@@@@@@@@@@@....@@@@....            ",
"            ....@@@@....@@@@@@@@@@@@@@@@....@@@@....            ",
"            ....@@@@....@@@@@@@@@@@@@@@@....@@@@....            ",
"            ....@@@@....@@@@@@@@@@@@@@@@....@@@@....            ",
"            ....@@@@....@@@@@@@@@@@@@@@@....@@@@....            ",
"            ....@@@@....@@@@@@@@@@@@@@@@....@@@@....            ",
"                    ....@@@@@@@@@@@@@@@@....                    ",
"                    ....@@@@@@@@@@@@@@@@....                    ",
"                    ....@@@@@@@@@@@@@@@@....                    ",
"                    ....@@@@@@@@@@@@@@@@....                    "};
